<?xml version="1.0" encoding="UTF-8" standalone="no"?>
<svg
   xmlns:dc="http://purl.org/dc/elements/1.1/"
   xmlns:cc="http://creativecommons.org/ns#"
   xmlns:rdf="http://www.w3.org/1999/02/22-rdf-syntax-ns#"
   xmlns:svg="http://www.w3.org/2000/svg"
   xmlns="http://www.w3.org/2000/svg"
   xmlns:xlink="http://www.w3.org/1999/xlink"
   xmlns:sodipodi="http://sodipodi.sourceforge.net/DTD/sodipodi-0.dtd"
   xmlns:inkscape="http://www.inkscape.org/namespaces/inkscape"
   width="3600"
   height="1600"
   viewBox="0 0 952.49996 423.33336"
   version="1.1"
   id="svg8"
   inkscape:version="0.92.4 (5da689c313, 2019-01-14)"
   sodipodi:docname="keyfish3.svg"
   inkscape:export-filename="D:\artdump\keyfish900x400.png"
   inkscape:export-xdpi="24"
   inkscape:export-ydpi="24">
  <defs
     id="defs2">
    <marker
       style="overflow:visible;"
       id="Arrow1Lend"
       refX="0.0"
       refY="0.0"
       orient="auto"
       inkscape:stockid="Arrow1Lend"
       inkscape:isstock="true">
      <path
         transform="scale(0.8) rotate(180) translate(12.5,0)"
         style="fill-rule:evenodd;stroke:#656565;stroke-width:1pt;stroke-opacity:1;fill:#656565;fill-opacity:1"
         d="M 0.0,0.0 L 5.0,-5.0 L -12.5,0.0 L 5.0,5.0 L 0.0,0.0 z "
         id="path1688" />
    </marker>
    <linearGradient
       inkscape:collect="always"
       id="linearGradient1262">
      <stop
         style="stop-color:#ff6022;stop-opacity:1;"
         offset="0"
         id="stop1258" />
      <stop
         style="stop-color:#ff6022;stop-opacity:0;"
         offset="1"
         id="stop1260" />
    </linearGradient>
    <linearGradient
       inkscape:collect="always"
       id="linearGradient1250">
      <stop
         style="stop-color:#ff6022;stop-opacity:1;"
         offset="0"
         id="stop1246" />
      <stop
         style="stop-color:#ff6022;stop-opacity:0;"
         offset="1"
         id="stop1248" />
    </linearGradient>
    <rect
       x="393.96877"
       y="169.12114"
       width="70.289155"
       height="42.911335"
       id="rect965" />
    <rect
       x="401.9297"
       y="173.19869"
       width="90.871063"
       height="39.610463"
       id="rect959" />
    <rect
       x="393.96877"
       y="169.12114"
       width="70.289155"
       height="42.911335"
       id="rect1177" />
    <rect
       x="393.96877"
       y="169.12114"
       width="70.289155"
       height="42.911335"
       id="rect1191" />
    <linearGradient
       inkscape:collect="always"
       xlink:href="#linearGradient1250"
       id="linearGradient1252"
       x1="367.6402"
       y1="119.22272"
       x2="259.76813"
       y2="29.155128"
       gradientUnits="userSpaceOnUse" />
    <linearGradient
       inkscape:collect="always"
       xlink:href="#linearGradient1262"
       id="linearGradient1264"
       x1="466.58307"
       y1="219.64896"
       x2="479.22733"
       y2="165.77771"
       gradientUnits="userSpaceOnUse" />
    <linearGradient
       inkscape:collect="always"
       xlink:href="#linearGradient1262"
       id="linearGradient1266"
       x1="386.26828"
       y1="241.44519"
       x2="351.29901"
       y2="206.58131"
       gradientUnits="userSpaceOnUse" />
    <rect
       x="393.96878"
       y="169.12114"
       width="70.289154"
       height="42.911335"
       id="rect1177-5" />
    <rect
       x="393.96878"
       y="169.12114"
       width="70.289154"
       height="42.911335"
       id="rect1388" />
    <rect
       x="393.96877"
       y="169.12114"
       width="70.289155"
       height="42.911335"
       id="rect1443" />
    <rect
       x="393.96878"
       y="169.12114"
       width="70.289154"
       height="42.911335"
       id="rect1191-0" />
    <rect
       x="393.96878"
       y="169.12114"
       width="70.289154"
       height="42.911335"
       id="rect1458" />
    <rect
       x="393.96878"
       y="169.12114"
       width="70.289154"
       height="42.911335"
       id="rect1191-0-9" />
    <rect
       x="393.96878"
       y="169.12114"
       width="70.289154"
       height="42.911335"
       id="rect1495" />
    <rect
       x="393.96878"
       y="169.12114"
       width="70.289154"
       height="42.911335"
       id="rect1573" />
    <rect
       x="393.96878"
       y="169.12114"
       width="70.289154"
       height="42.911335"
       id="rect1595" />
    <rect
       x="393.96878"
       y="169.12114"
       width="70.289154"
       height="42.911335"
       id="rect1191-0-5" />
    <rect
       x="393.96878"
       y="169.12114"
       width="70.289154"
       height="42.911335"
       id="rect1495-4" />
    <rect
       x="393.96877"
       y="169.12114"
       width="70.289155"
       height="42.911335"
       id="rect1663" />
    <rect
       x="393.96878"
       y="169.12114"
       width="70.289154"
       height="42.911335"
       id="rect965-3" />
    <rect
       x="393.96878"
       y="169.12114"
       width="70.289154"
       height="42.911335"
       id="rect1976" />
  </defs>
  <sodipodi:namedview
     id="base"
     pagecolor="#ffffff"
     bordercolor="#666666"
     borderopacity="1.0"
     inkscape:pageopacity="0.0"
     inkscape:pageshadow="2"
     inkscape:zoom="0.24028116"
     inkscape:cx="111.60842"
     inkscape:cy="1126.9861"
     inkscape:document-units="mm"
     inkscape:current-layer="layer4"
     inkscape:document-rotation="0"
     showgrid="false"
     units="px"
     inkscape:window-width="1920"
     inkscape:window-height="1009"
     inkscape:window-x="-8"
     inkscape:window-y="-8"
     inkscape:window-maximized="1" />
  <metadata
     id="metadata5">
    <rdf:RDF>
      <cc:Work
         rdf:about="">
        <dc:format>image/svg+xml</dc:format>
        <dc:type
           rdf:resource="http://purl.org/dc/dcmitype/StillImage" />
        <dc:title />
      </cc:Work>
    </rdf:RDF>
  </metadata>
  <g
     inkscape:groupmode="layer"
     id="layer2"
     inkscape:label="fish1"
     style="display:inline">
    <path
       style="fill:url(#linearGradient1252);fill-opacity:1;stroke:none;stroke-width:0.26458299px;stroke-linecap:butt;stroke-linejoin:miter;stroke-opacity:1"
       d="m 323.84568,107.19352 c 8.43764,-1.55966 28.90023,16.40845 38.34689,26.2603 9.58415,10.48283 14.058,22.28837 15.652,34.59914 2.56364,19.79943 9.63901,37.67283 15.65199,56.29225 l 67.2761,-16.20118 c -8.14112,-20.2286 -10.31416,-42.03563 -24.43908,-60.6858 -18.05339,-23.83721 -44.39691,-42.16392 -74.141,-48.878142 -8.32692,-1.618905 -21.97076,-6.179819 -27.36346,-14.258821 -3.3324,-57.398199 -43.41531,-78.6493175 -41.06179,-70.435477 1.75812,4.522924 2.90783,8.932173 4.13057,14.886519 0.60772,2.959395 2.2673,6.300465 1.97932,10.226864 -0.24565,3.349298 -2.71054,6.518865 -3.74817,10.69524 -0.83395,3.35657 -0.30103,5.359474 -0.57058,8.902245 -0.14657,1.926519 -1.81778,3.905331 -2.04006,6.086254 -0.25406,2.492909 0.96409,5.165708 1.24844,6.872744 -4.50891,-2.172592 -8.93831,3.119713 -13.54971,6.216592 -3.05798,2.053654 -6.8825,2.498604 -10.17682,4.00886 -3.61765,1.658489 -6.73729,4.318923 -10.83289,5.140053 -14.10806,2.828539 -24.1042,-2.609142 -23.91933,-0.929063 1.28067,11.638717 23.15652,33.105642 87.55758,21.201422 z"
       id="path33"
       sodipodi:nodetypes="scsccscccssssscsssss"
       inkscape:connector-curvature="0" />
    <path
       style="fill:url(#linearGradient1266);fill-opacity:1;stroke:none;stroke-width:0.26458299px;stroke-linecap:butt;stroke-linejoin:miter;stroke-opacity:1"
       d="m 406.00724,241.93449 c -26.22844,-2.20232 -52.84339,-23.55129 -56.46607,-32.33675 -0.15955,-0.38691 -4.4e-4,-0.50615 0.43842,-0.87897 5.7536,-4.88779 8.60963,-3.98898 14.75439,-3.24604 3.73111,0.45111 6.96973,-2.40897 10.83189,-2.43283 6.95069,-3.01728 19.88536,23.8853 30.44137,38.89459 z"
       id="path953"
       sodipodi:nodetypes="cssscc"
       inkscape:connector-curvature="0" />
    <path
       style="fill:url(#linearGradient1264);fill-opacity:1;stroke:none;stroke-width:0.26458299px;stroke-linecap:butt;stroke-linejoin:miter;stroke-opacity:1"
       d="m 460.76288,226.20681 c 9.10496,-8.8515 23.37914,-34.59089 17.38469,-53.08051 -0.40061,-1.23567 -3.50158,-1.81061 -5.87576,-0.30384 -0.77705,0.49315 -1.33041,1.78897 -3.51501,2.82144 -3.73314,1.76434 -0.94592,-2.27754 -9.27435,5.55166 -3.52256,3.31141 1.22416,45.02331 1.28046,45.01125 z"
       id="path955"
       sodipodi:nodetypes="csssscc"
       inkscape:connector-curvature="0" />
    <text
       xml:space="preserve"
       id="text957"
       style="font-style:normal;font-weight:normal;font-size:10.58329964px;line-height:1.25;font-family:sans-serif;letter-spacing:0px;word-spacing:0px;white-space:pre;shape-inside:url(#rect959);fill:#000000;fill-opacity:1;stroke:none" />
  </g>
  <g
     inkscape:groupmode="layer"
     id="layer3"
     inkscape:label="fish2"
     style="display:inline"
     sodipodi:insensitive="true">
    <path
       style="fill:#e45620;fill-opacity:1;stroke:none;stroke-width:0.26458299px;stroke-linecap:butt;stroke-linejoin:miter;stroke-opacity:1"
       d="m 379.60769,163.09023 c -0.43568,3.34564 -4.54735,1.43861 -3.62562,2.87877 2.18432,-13.75235 -22.50863,-43.84712 -39.60474,-54.28704 62.29131,13.18971 64.14438,122.01459 43.23036,51.40827 z"
       id="path36"
       sodipodi:nodetypes="cccc"
       inkscape:connector-curvature="0" />
    <path
       style="fill:#ded7dd;fill-opacity:1;stroke:none;stroke-width:0.26458299px;stroke-linecap:butt;stroke-linejoin:miter;stroke-opacity:1"
       d="m 397.0663,184.39144 c -1.55938,2.84341 -1.17924,7.79896 1.5103,9.61087 2.33854,1.57545 7.22346,0.70876 8.23788,-1.92217 0.78099,-2.02552 -0.3184,-3.01508 1.23568,-4.53084 4.58377,-4.47073 0.45952,-7.59107 -1.23568,-7.4141 -0.86364,0.0902 -8.04326,1.14744 -9.74818,4.25624 z"
       id="path872"
       sodipodi:nodetypes="ssssss"
       inkscape:connector-curvature="0" />
    <path
       style="fill:#333333;fill-opacity:1;stroke:none;stroke-width:0.26458299px;stroke-linecap:butt;stroke-linejoin:miter;stroke-opacity:1"
       d="m 364.84344,106.59875 c 7.83152,1.74756 23.93749,9.33886 26.3777,4.96796 0.51101,-0.91531 0.48636,-1.10548 -0.94156,-2.83211 3.40879,1.51213 5.50969,3.02426 8.09106,4.53639 9.36689,11.16429 7.30485,20.68994 7.63662,30.80236 0.19993,6.09374 -27.06257,-25.0998 -41.16382,-37.4746 z"
       id="path2425"
       sodipodi:nodetypes="csccsc"
       inkscape:connector-curvature="0" />
    <path
       style="fill:#ded7dd;fill-opacity:1;stroke:none;stroke-width:0.26458299px;stroke-linecap:butt;stroke-linejoin:miter;stroke-opacity:1"
       d="m 361.36879,108.46556 c 12.99945,11.50179 26.24487,20.75644 37.34509,31.85317 3.9137,3.91246 5.72277,8.41299 8.51249,12.63143 -2.19677,-5.40039 -2.27636,-9.9334 -6.79625,-15.03415 -9.70905,-10.95676 -21.18798,-19.54232 -31.02938,-29.10721 -1.16031,-1.12771 3.56408,-3.08422 4.87408,-5.01138 2.34662,-3.45215 -18.19992,-0.0159 -12.90603,4.66814 z"
       id="path894"
       sodipodi:nodetypes="sscssss"
       inkscape:connector-curvature="0" />
    <path
       style="fill:#ded7dd;fill-opacity:1;stroke:none;stroke-width:0.26458299px;stroke-linecap:butt;stroke-linejoin:miter;stroke-opacity:1"
       d="m 398.37064,113.27099 c 4.6023,5.75646 13.06374,13.39327 11.05251,15.92659 -1.81262,2.28316 -1.57433,4.38332 -2.19678,6.45301 -0.37977,1.26278 0.28896,2.86787 1.64758,4.39354 1.45959,1.63905 5.18967,0.41122 6.31571,-2.19677 0.92069,-2.13238 0.40074,-4.14393 0.1373,-6.17842 -0.53763,-4.15208 -2.92903,-6.49877 -4.39354,-9.74816 -3.81559,-3.01854 -7.75398,-5.99242 -12.56278,-8.64979 z"
       id="path896"
       sodipodi:nodetypes="cssssscc"
       inkscape:connector-curvature="0" />
  </g>
  <g
     inkscape:groupmode="layer"
     id="layer7"
     inkscape:label="fish white" />
  <g
     inkscape:groupmode="layer"
     id="layer8"
     inkscape:label="fish shade"
     style="display:inline" />
  <g
     inkscape:groupmode="layer"
     id="layer4"
     inkscape:label="keycapctrl"
     style="display:inline"
     sodipodi:insensitive="true">
    <g
       id="g951"
       transform="matrix(0.34034607,1.1553448,-1.2131974,0.31013782,325.06645,-660.70454)">
      <path
         style="fill:#babcc2;fill-opacity:1;stroke:none;stroke-width:0.26458299px;stroke-linecap:butt;stroke-linejoin:miter;stroke-opacity:1"
         d="m 674.63997,149.51008 77.47339,0.19417 c 2.14708,0.005 4.49163,-1.97499 4.4659,-5.14548 L 756.1909,96.696129 c -0.0203,-2.505959 -1.79577,-5.148983 -4.56295,-5.145476 l -76.59965,0.09708 c -3.04146,0.0039 -5.24721,2.737217 -5.24256,5.048393 l 0.0971,48.250984 c 0.004,1.79218 1.54936,4.55493 4.75713,4.56297 z"
         id="path927"
         sodipodi:nodetypes="sssssssss"
         inkscape:connector-curvature="0" />
      <path
         style="fill:#dededf;fill-opacity:1;stroke:none;stroke-width:0.216829px;stroke-linecap:butt;stroke-linejoin:miter;stroke-opacity:1"
         d="m 682.04165,142.44162 65.81523,0.15351 c 1.82398,0.004 3.81573,-1.56136 3.79387,-4.06783 l -0.32992,-37.83844 c -0.0172,-1.981122 -1.52554,-4.070599 -3.87632,-4.067826 l -65.07297,0.07674 c -2.58378,0.003 -4.45761,2.163944 -4.45366,3.991076 l 0.0825,38.14545 c 0.003,1.41684 1.31621,3.60097 4.04128,3.60732 z"
         id="path927-7"
         sodipodi:nodetypes="sssssssss"
         inkscape:connector-curvature="0" />
    </g>
    <text
       xml:space="preserve"
       id="text963"
       style="font-style:normal;font-weight:normal;font-size:10.58329964px;line-height:1.25;font-family:sans-serif;letter-spacing:0px;word-spacing:0px;white-space:pre;shape-inside:url(#rect965);fill:#4d4d4d;fill-opacity:1;stroke:none"
       transform="matrix(0.41812469,1.4329226,-1.4329226,0.41812469,512.12695,-471.47672)"><tspan
         x="393.96875"
         y="178.77657"
         id="tspan148"><tspan
           style="fill:#4d4d4d"
           id="tspan146">Ctrl</tspan></tspan></text>
  </g>
</svg>
