<?xml version="1.0" encoding="UTF-8" standalone="no"?>
<svg
   xmlns:dc="http://purl.org/dc/elements/1.1/"
   xmlns:cc="http://creativecommons.org/ns#"
   xmlns:rdf="http://www.w3.org/1999/02/22-rdf-syntax-ns#"
   xmlns:svg="http://www.w3.org/2000/svg"
   xmlns="http://www.w3.org/2000/svg"
   xmlns:xlink="http://www.w3.org/1999/xlink"
   xmlns:sodipodi="http://sodipodi.sourceforge.net/DTD/sodipodi-0.dtd"
   xmlns:inkscape="http://www.inkscape.org/namespaces/inkscape"
   width="3600"
   height="1600"
   viewBox="0 0 952.49996 423.33336"
   version="1.1"
   id="svg8"
   inkscape:version="0.92.4 (5da689c313, 2019-01-14)"
   sodipodi:docname="keyfish2.svg"
   inkscape:export-filename="D:\artdump\keyfish900x400.png"
   inkscape:export-xdpi="24"
   inkscape:export-ydpi="24">
  <defs
     id="defs2">
    <marker
       style="overflow:visible;"
       id="Arrow1Lend"
       refX="0.0"
       refY="0.0"
       orient="auto"
       inkscape:stockid="Arrow1Lend"
       inkscape:isstock="true">
      <path
         transform="scale(0.8) rotate(180) translate(12.5,0)"
         style="fill-rule:evenodd;stroke:#656565;stroke-width:1pt;stroke-opacity:1;fill:#656565;fill-opacity:1"
         d="M 0.0,0.0 L 5.0,-5.0 L -12.5,0.0 L 5.0,5.0 L 0.0,0.0 z "
         id="path1688" />
    </marker>
    <linearGradient
       inkscape:collect="always"
       id="linearGradient1262">
      <stop
         style="stop-color:#ff6022;stop-opacity:1;"
         offset="0"
         id="stop1258" />
      <stop
         style="stop-color:#ff6022;stop-opacity:0;"
         offset="1"
         id="stop1260" />
    </linearGradient>
    <linearGradient
       inkscape:collect="always"
       id="linearGradient1250">
      <stop
         style="stop-color:#ff6022;stop-opacity:1;"
         offset="0"
         id="stop1246" />
      <stop
         style="stop-color:#ff6022;stop-opacity:0;"
         offset="1"
         id="stop1248" />
    </linearGradient>
    <rect
       x="393.96877"
       y="169.12114"
       width="70.289155"
       height="42.911335"
       id="rect965" />
    <rect
       x="401.9297"
       y="173.19869"
       width="90.871063"
       height="39.610463"
       id="rect959" />
    <rect
       x="393.96877"
       y="169.12114"
       width="70.289155"
       height="42.911335"
       id="rect1177" />
    <rect
       x="393.96877"
       y="169.12114"
       width="70.289155"
       height="42.911335"
       id="rect1191" />
    <rect
       x="393.96878"
       y="169.12114"
       width="70.289154"
       height="42.911335"
       id="rect1177-5" />
    <rect
       x="393.96878"
       y="169.12114"
       width="70.289154"
       height="42.911335"
       id="rect1388" />
    <rect
       x="393.96877"
       y="169.12114"
       width="70.289155"
       height="42.911335"
       id="rect1443" />
    <rect
       x="393.96878"
       y="169.12114"
       width="70.289154"
       height="42.911335"
       id="rect1191-0" />
    <rect
       x="393.96878"
       y="169.12114"
       width="70.289154"
       height="42.911335"
       id="rect1458" />
    <rect
       x="393.96878"
       y="169.12114"
       width="70.289154"
       height="42.911335"
       id="rect1191-0-9" />
    <rect
       x="393.96878"
       y="169.12114"
       width="70.289154"
       height="42.911335"
       id="rect1495" />
    <rect
       x="393.96878"
       y="169.12114"
       width="70.289154"
       height="42.911335"
       id="rect1573" />
    <rect
       x="393.96878"
       y="169.12114"
       width="70.289154"
       height="42.911335"
       id="rect1595" />
    <rect
       x="393.96878"
       y="169.12114"
       width="70.289154"
       height="42.911335"
       id="rect1191-0-5" />
    <rect
       x="393.96878"
       y="169.12114"
       width="70.289154"
       height="42.911335"
       id="rect1495-4" />
    <rect
       x="393.96877"
       y="169.12114"
       width="70.289155"
       height="42.911335"
       id="rect1663" />
    <rect
       x="393.96878"
       y="169.12114"
       width="70.289154"
       height="42.911335"
       id="rect965-3" />
    <rect
       x="393.96878"
       y="169.12114"
       width="70.289154"
       height="42.911335"
       id="rect1976" />
    <linearGradient
       inkscape:collect="always"
       xlink:href="#linearGradient1250"
       id="linearGradient2189"
       gradientUnits="userSpaceOnUse"
       x1="393.58807"
       y1="137.01003"
       x2="259.76813"
       y2="29.155128"
       gradientTransform="matrix(-0.79255501,-0.02548818,0.02088791,-0.96710397,445.26964,286.36209)" />
    <linearGradient
       inkscape:collect="always"
       xlink:href="#linearGradient1262"
       id="linearGradient2376"
       gradientUnits="userSpaceOnUse"
       gradientTransform="matrix(-0.77898014,0.13165671,-0.12681879,-0.74636856,474.22635,170.72806)"
       x1="390.69833"
       y1="237.92084"
       x2="348.22348"
       y2="179.26741" />
    <linearGradient
       inkscape:collect="always"
       xlink:href="#linearGradient1262"
       id="linearGradient2378"
       gradientUnits="userSpaceOnUse"
       gradientTransform="matrix(-0.76545792,0.00840799,-0.00787813,-0.81694064,436.66865,234.8816)"
       x1="466.58307"
       y1="219.64896"
       x2="476.53262"
       y2="151.80496" />
  </defs>
  <sodipodi:namedview
     id="base"
     pagecolor="#ffffff"
     bordercolor="#666666"
     borderopacity="1.0"
     inkscape:pageopacity="0.0"
     inkscape:pageshadow="2"
     inkscape:zoom="0.33980888"
     inkscape:cx="1270.707"
     inkscape:cy="969.77718"
     inkscape:document-units="mm"
     inkscape:current-layer="g1175"
     inkscape:document-rotation="0"
     showgrid="false"
     units="px"
     inkscape:window-width="1920"
     inkscape:window-height="1009"
     inkscape:window-x="-8"
     inkscape:window-y="-8"
     inkscape:window-maximized="1" />
  <metadata
     id="metadata5">
    <rdf:RDF>
      <cc:Work
         rdf:about="">
        <dc:format>image/svg+xml</dc:format>
        <dc:type
           rdf:resource="http://purl.org/dc/dcmitype/StillImage" />
        <dc:title />
      </cc:Work>
    </rdf:RDF>
  </metadata>
  <g
     inkscape:groupmode="layer"
     id="layer2"
     inkscape:label="fish1"
     style="display:inline">
    <text
       xml:space="preserve"
       id="text957"
       style="font-style:normal;font-weight:normal;font-size:10.58329964px;line-height:1.25;font-family:sans-serif;letter-spacing:0px;word-spacing:0px;white-space:pre;shape-inside:url(#rect959);fill:#000000;fill-opacity:1;stroke:none" />
    <path
       style="display:inline;fill:url(#linearGradient2189);fill-opacity:1;stroke:none;stroke-width:0.23172px;stroke-linecap:butt;stroke-linejoin:miter;stroke-opacity:1"
       d="m 182.60528,182.67846 c -6.81955,0.56831 -19.69853,-20.60567 -24.35158,-31.86576 -4.37747,-10.5932 -5.3601,-25.08778 -8.9364,-36.60586 -5.71753,-18.414273 -6.85253,-36.679219 -11.22923,-54.839402 L 94.315121,78.812857 c 6.029749,19.77066 8.081159,32.549143 13.158979,53.271263 6.28839,25.66235 19.08111,51.27972 44.55924,57.94705 6.56572,1.77787 17.28395,6.5365 21.38921,14.4872 2.43902,70.5474 19.45069,78.98967 17.34267,64.77146 -1.29894,-4.41894 4.47227,-5.96648 3.62755,-11.75611 -0.41984,-2.87754 -1.66536,-6.15101 -1.35511,-9.9409 0.26466,-3.23287 5.57958,-6.23533 6.48919,-10.24788 0.73106,-3.22488 0.35053,-5.17548 0.63816,-8.59484 0.15641,-1.85942 1.52226,-3.73054 1.74399,-5.83406 0.25343,-2.40442 3.18816,-3.37277 2.99846,-5.0309 3.52817,2.21606 6.60007,1.05509 10.31955,-1.82237 2.46651,-1.90816 5.50694,-2.24099 8.14942,-3.6176 2.90183,-1.51173 2.68392,-1.25917 5.94706,-1.94889 11.24049,-2.37591 16.90848,6.97723 16.74121,5.35251 -1.08226,-10.51259 -14.48533,-37.25163 -63.45942,-33.17033 z"
       id="path33-6"
       sodipodi:nodetypes="sssccscccssssscsssss"
       inkscape:connector-curvature="0" />
  </g>
  <g
     inkscape:groupmode="layer"
     id="layer6"
     inkscape:label="fishes"
     style="display:inline">
    <path
       style="display:inline;fill:url(#linearGradient2376);fill-opacity:1;stroke:none;stroke-width:0.204621px;stroke-linecap:butt;stroke-linejoin:miter;stroke-opacity:1"
       d="m 123.04869,47.437899 c 12.49323,-10.344618 58.7234,22.115892 49.30862,32.346742 -3.86207,4.40559 -6.02401,2.066053 -10.90487,2.320547 -2.96368,0.15453 -2.7496,0.99833 -5.75511,1.524614 -9.9789,7.310294 -25.77055,-23.658773 -32.64864,-36.191903 z"
       id="path953-6-91"
       sodipodi:nodetypes="ccscc"
       inkscape:connector-curvature="0" />
    <path
       style="display:inline;fill:url(#linearGradient2378);fill-opacity:1;stroke:none;stroke-width:0.20923799px;stroke-linecap:butt;stroke-linejoin:miter;stroke-opacity:1"
       d="m 82.191962,53.958134 c -5.566671,4.900363 -34.689573,59.016296 -13.438134,52.099666 5.77065,-4.85525 15.215719,-1.93651 18.856992,-5.56716 2.670287,-2.734834 0.31115,-46.530705 0.268155,-46.520382 z"
       id="path955-4-048"
       sodipodi:nodetypes="ccccc"
       inkscape:connector-curvature="0" />
  </g>
  <g
     inkscape:groupmode="layer"
     id="layer7"
     inkscape:label="fish white"
     style="display:inline">
    <path
       style="fill:#333333;fill-opacity:1;stroke:none;stroke-width:0.26458299px;stroke-linecap:butt;stroke-linejoin:miter;stroke-opacity:1"
       d="m 145.67336,125.76512 c -22.45003,34.96248 24.52896,16.00677 1.44163,-0.89243 -0.48348,-0.29268 -1.44163,0.89243 -1.44163,0.89243 z"
       id="path2455"
       sodipodi:nodetypes="ccc"
       inkscape:connector-curvature="0" />
    <path
       style="fill:#ded7dd;fill-opacity:1;stroke:none;stroke-width:0.26458299px;stroke-linecap:butt;stroke-linejoin:miter;stroke-opacity:1"
       d="m 142.13166,101.74452 c 0,0 7.37842,31.64954 -5.82507,27.96033 -13.20349,-3.68921 -11.2618,20.58191 0.97085,13.39766 12.23264,-7.18426 9.8298,-17.88782 12.9365,-10.89774 3.1067,6.99009 2.9707,-0.94219 2.13586,-5.24256 -0.77983,-4.01702 -5.43643,-26.21241 -6.60175,-26.60114 -1.16492,-0.388601 -3.61639,1.38345 -3.61639,1.38345 z"
       id="path2407"
       sodipodi:nodetypes="csssssc"
       inkscape:connector-curvature="0" />
    <path
       style="fill:#333333;fill-opacity:1;stroke:none;stroke-width:0.26458299px;stroke-linecap:butt;stroke-linejoin:miter;stroke-opacity:1"
       d="m 123.15646,108.87745 c 3.68631,12.9446 -0.95284,21.06921 -3.84435,30.2056 0,0 -6.59031,-27.18504 -6.59031,-27.73424 0,-0.54919 10.43466,-2.47136 10.43466,-2.47136 z"
       id="path2457"
       sodipodi:nodetypes="ccsc"
       inkscape:connector-curvature="0" />
    <path
       style="fill:#ded7dd;fill-opacity:1;stroke:none;stroke-width:0.26458299px;stroke-linecap:butt;stroke-linejoin:miter;stroke-opacity:1"
       d="m 138.12196,107.09257 c 3.79877,4.2319 6.41396,15.004 1.09839,17.02498 -6.40079,2.43358 -5.97336,-17.80194 -12.63144,-16.20119 -9.87897,2.37512 -8.01725,20.02295 -5.76652,29.931 1.26119,5.55197 14.55004,10.10448 10.16006,13.72982 -8.34153,6.88861 -18.81798,-13.54033 -21.9677,-23.88988 -2.45364,-8.06232 -2.99993,-20.07124 3.84435,-24.98827 6.94169,-4.987008 19.55324,-1.96708 25.26286,4.39354 z"
       id="path2409"
       sodipodi:nodetypes="ssssssss"
       inkscape:connector-curvature="0" />
    <path
       style="fill:#ded7dd;fill-opacity:1;stroke:none;stroke-width:0.26458299px;stroke-linecap:butt;stroke-linejoin:miter;stroke-opacity:1"
       d="m 144.87979,142.28493 c 2.94146,7.18271 12.31761,35.67467 16.66043,22.21322 0.36519,-3.30351 -3.19371,-12.40473 -4.37094,-14.14404 -1.17723,-1.73932 -8.71489,-11.42151 -12.28949,-8.06918 z"
       id="path2474"
       sodipodi:nodetypes="ccsc"
       inkscape:connector-curvature="0" />
    <path
       style="fill:#333333;fill-opacity:1;stroke:none;stroke-width:0.26458299px;stroke-linecap:butt;stroke-linejoin:miter;stroke-opacity:1"
       d="m 128.31365,161.23587 c -1.7535,3.40765 -1.01313,8.21998 1.0511,11.44888 3.43793,5.37766 16.44644,15.97401 16.57199,9.59256 0.13697,-6.96216 -15.83818,-24.51012 -17.62309,-21.04144 z"
       id="path2476"
       sodipodi:nodetypes="ssss"
       inkscape:connector-curvature="0" />
  </g>
  <g
     inkscape:groupmode="layer"
     id="layer8"
     inkscape:label="fish shade"
     style="display:inline">
    <path
       style="fill:#000000;fill-opacity:0.152941;stroke:none;stroke-width:0.26458299px;stroke-linecap:butt;stroke-linejoin:miter;stroke-opacity:1"
       d="m 111.18694,100.19117 c 0,0 5.93652,47.20573 18.04263,67.05767 6.19601,10.16038 28.81338,24.65232 28.81338,24.65232 -9.57908,-1.88506 -20.39477,-6.67646 -28.84404,-15.82485 -16.85055,-18.24484 -23.54588,-47.59882 -24.86373,-60.51305 z"
       id="path2470"
       sodipodi:nodetypes="cscscc"
       inkscape:connector-curvature="0" />
  </g>
  <g
     inkscape:groupmode="layer"
     id="g1175"
     inkscape:label="keycapalt"
     style="display:inline"
     sodipodi:insensitive="true">
    <g
       id="g1198"
       transform="matrix(0.7437104,-0.01449559,0.01449559,0.7437104,-297.81055,-8.0758569)">
      <g
         id="g1169"
         transform="matrix(0.34034607,1.1553448,-1.2131974,0.31013782,455.54798,-737.59544)">
        <path
           style="fill:#babcc2;fill-opacity:1;stroke:none;stroke-width:0.26458299px;stroke-linecap:butt;stroke-linejoin:miter;stroke-opacity:1"
           d="m 674.63997,149.51008 77.47339,0.19417 c 2.14708,0.005 4.49163,-1.97499 4.4659,-5.14548 L 756.1909,96.696129 c -0.0203,-2.505959 -1.79577,-5.148983 -4.56295,-5.145476 l -76.59965,0.09708 c -3.04146,0.0039 -5.24721,2.737217 -5.24256,5.048393 l 0.0971,48.250984 c 0.004,1.79218 1.54936,4.55493 4.75713,4.56297 z"
           id="path1165"
           sodipodi:nodetypes="sssssssss"
           inkscape:connector-curvature="0" />
        <path
           style="fill:#dededf;fill-opacity:1;stroke:none;stroke-width:0.216829px;stroke-linecap:butt;stroke-linejoin:miter;stroke-opacity:1"
           d="m 682.04165,142.44162 65.81523,0.15351 c 1.82398,0.004 3.81573,-1.56136 3.79387,-4.06783 l -0.32992,-37.83844 c -0.0172,-1.981122 -1.52554,-4.070599 -3.87632,-4.067826 l -65.07297,0.07674 c -2.58378,0.003 -4.45761,2.163944 -4.45366,3.991076 l 0.0825,38.14545 c 0.003,1.41684 1.31621,3.60097 4.04128,3.60732 z"
           id="path1167"
           sodipodi:nodetypes="sssssssss"
           inkscape:connector-curvature="0" />
      </g>
      <text
         xml:space="preserve"
         id="text1173"
         style="font-style:normal;font-weight:normal;font-size:10.58329964px;line-height:1.25;font-family:sans-serif;letter-spacing:0px;word-spacing:0px;white-space:pre;shape-inside:url(#rect1177);fill:#4d4d4d;fill-opacity:1;stroke:none"
         transform="matrix(0.41812469,1.4329226,-1.4329226,0.41812469,642.60848,-548.36762)"><tspan
           x="393.96875"
           y="178.77657"
           id="tspan168"><tspan
             style="fill:#4d4d4d"
             id="tspan166">Alt
</tspan></tspan></text>
    </g>
  </g>
</svg>
