<?xml version="1.0" encoding="UTF-8" standalone="no"?>
<!-- Created with Inkscape (http://www.inkscape.org/) -->

<svg
   xmlns:dc="http://purl.org/dc/elements/1.1/"
   xmlns:cc="http://creativecommons.org/ns#"
   xmlns:rdf="http://www.w3.org/1999/02/22-rdf-syntax-ns#"
   xmlns:svg="http://www.w3.org/2000/svg"
   xmlns="http://www.w3.org/2000/svg"
   xmlns:xlink="http://www.w3.org/1999/xlink"
   xmlns:sodipodi="http://sodipodi.sourceforge.net/DTD/sodipodi-0.dtd"
   xmlns:inkscape="http://www.inkscape.org/namespaces/inkscape"
   width="1682.5197"
   height="793.70081"
   viewBox="0 -68 445.16666 210"
   version="1.1"
   id="svg8"
   inkscape:version="0.92.4 (5da689c313, 2019-01-14)"
   sodipodi:docname="me.svg"
   inkscape:export-filename="C:\Users\Alexander\Desktop\me2.png"
   inkscape:export-xdpi="96"
   inkscape:export-ydpi="96">
  <defs
     id="defs2">
    <linearGradient
       inkscape:collect="always"
       id="linearGradient1037">
      <stop
         style="stop-color:#ffffff;stop-opacity:1;"
         offset="0"
         id="stop1033" />
      <stop
         style="stop-color:#ffffff;stop-opacity:0;"
         offset="1"
         id="stop1035" />
    </linearGradient>
    <radialGradient
       inkscape:collect="always"
       xlink:href="#linearGradient1037"
       id="radialGradient1039"
       cx="105.80797"
       cy="149.21307"
       fx="105.80797"
       fy="149.21307"
       r="110.66868"
       gradientTransform="matrix(2.8112696,-0.37386534,0.72518864,1.3219903,-185.7575,-8.4872343)"
       gradientUnits="userSpaceOnUse" />
  </defs>
  <sodipodi:namedview
     id="base"
     pagecolor="#ffffff"
     bordercolor="#666666"
     borderopacity="1.0"
     inkscape:pageopacity="0.0"
     inkscape:pageshadow="2"
     inkscape:zoom="0.69650143"
     inkscape:cx="73.968524"
     inkscape:cy="182.54823"
     inkscape:document-units="mm"
     inkscape:current-layer="layer2"
     showgrid="false"
     inkscape:window-width="1920"
     inkscape:window-height="1009"
     inkscape:window-x="-8"
     inkscape:window-y="-8"
     inkscape:window-maximized="1"
     viewbox-x="0"
     viewbox-y="-68"
     units="px" />
  <metadata
     id="metadata5">
    <rdf:RDF>
      <cc:Work
         rdf:about="">
        <dc:format>image/svg+xml</dc:format>
        <dc:type
           rdf:resource="http://purl.org/dc/dcmitype/StillImage" />
        <dc:title />
      </cc:Work>
    </rdf:RDF>
  </metadata>
  <g
     inkscape:label="bg copy"
     id="g1044"
     inkscape:groupmode="layer"
     transform="translate(0,-87.000005)"
     style="display:inline">
    <rect
       y="-1.3867084"
       x="-4.8607121"
       height="301.19955"
       width="463.51776"
       id="rect1042"
       style="fill:#ffb380;fill-opacity:1;stroke:none;stroke-width:0.37916535;stroke-opacity:1" />
  </g>
  <g
     inkscape:groupmode="layer"
     id="layer7"
     inkscape:label="bg"
     transform="translate(0,-87.000005)"
     sodipodi:insensitive="true">
    <rect
       style="fill:url(#radialGradient1039);fill-opacity:1;stroke:none;stroke-width:0.37340084;stroke-opacity:1"
       id="rect188"
       width="449.53104"
       height="301.19955"
       x="-4.8607121"
       y="-1.3867084" />
  </g>
  <g
     inkscape:groupmode="layer"
     id="layer2"
     inkscape:label="Layer 2"
     sodipodi:insensitive="true"
     style="display:inline"
     transform="translate(0,-87.000005)">
    <path
       style="fill:#fbdcc7;fill-opacity:1;stroke:none;stroke-width:0.26458332px;stroke-linecap:butt;stroke-linejoin:miter;stroke-opacity:1"
       d="m 83.14773,217.90277 c 6.385578,-12.39608 12.792275,-24.77368 12.151495,-43.31783 -2.716798,-4.07001 -4.818728,-8.34499 -6.638317,-12.71407 -1.59998,-13.34327 -3.092338,-26.6686 -2.92536,-39.71738 l 5.625692,-23.402882 8.66356,-13.051607 16.42703,-4.388038 29.92868,0.787596 11.81395,4.725583 6.97586,21.490138 5.51318,18.45227 -1.35017,27.90344 -6.63832,14.96434 c -3.29309,9.71567 -8.59618,13.73634 -13.61417,18.56478 0.26688,7.82837 -1.29199,7.54382 5.28815,17.88971 l 21.37763,17.55215 -23.51539,33.97918 -59.857366,6.63832 z"
       id="path22"
       inkscape:connector-curvature="0"
       sodipodi:nodetypes="ccccccccccccccccccc" />
  </g>
  <g
     inkscape:groupmode="layer"
     id="layer9"
     inkscape:label="shadowskin"
     style="display:inline;opacity:1"
     sodipodi:insensitive="true"
     transform="translate(0,-87.000005)">
    <path
       style="fill:#eecdb8;fill-opacity:1;stroke:none;stroke-width:0.26458332px;stroke-linecap:butt;stroke-linejoin:miter;stroke-opacity:1"
       d="m 95.805536,174.75371 c 19.429264,24.14427 30.023324,28.8882 52.093904,13.8392 -6.25383,5.64205 -16.80257,11.9337 -15.86445,13.78294 2.53081,4.98874 8.44379,2.0968 16.25825,-5.3444 l -11.19513,43.37408 -21.60265,4.8381 -25.315616,-19.80244 z"
       id="path1943"
       inkscape:connector-curvature="0"
       sodipodi:nodetypes="ccsccccc" />
    <path
       style="fill:#eac5ab;fill-opacity:1;stroke:none;stroke-width:0.26458332px;stroke-linecap:butt;stroke-linejoin:miter;stroke-opacity:1"
       d="m 94.849168,185.16124 c 2.728736,21.99796 6.246402,42.63411 15.639422,59.96988 l -20.927572,-15.18937 -0.90011,-36.67952 z"
       id="path1939"
       inkscape:connector-curvature="0"
       sodipodi:nodetypes="ccccc" />
    <path
       style="fill:#eac5ab;fill-opacity:1;stroke:none;stroke-width:0.26458332px;stroke-linecap:butt;stroke-linejoin:miter;stroke-opacity:1"
       d="m 149.08084,188.19911 c 0.50356,0.20259 -4.89532,31.03207 -10.84559,39.77998 -2.92182,4.29558 -9.42215,14.45028 -9.44357,14.43804 l 25.80234,-3.6993 z"
       id="path1941"
       inkscape:connector-curvature="0"
       sodipodi:nodetypes="csccc" />
  </g>
  <g
     inkscape:groupmode="layer"
     id="layer3"
     inkscape:label="shirt"
     sodipodi:insensitive="true"
     style="display:inline"
     transform="translate(0,-87.000005)">
    <path
       style="fill:#f2f2f2;fill-opacity:1;stroke:none;stroke-width:0.26458332px;stroke-linecap:butt;stroke-linejoin:miter;stroke-opacity:1"
       d="m 88.998448,214.52735 c 4.665369,6.37578 7.555306,13.9687 14.851832,19.12735 5.35572,3.7865 7.60583,4.51979 13.27663,9.22614 2.79394,2.31877 3.06375,-2.43462 8.77608,-2.58782 7.13288,-0.1913 9.29352,-3.15157 13.61418,-5.28815 7.24444,-3.5824 8.78779,-9.77068 12.48903,-14.51429 l -5.96323,47.14332 -7.76346,17.10208 -17.55216,16.53955 -21.602655,-25.09059 -8.100997,-25.76567 z"
       id="path25"
       inkscape:connector-curvature="0"
       sodipodi:nodetypes="cssssccccccc" />
  </g>
  <g
     inkscape:groupmode="layer"
     id="layer10"
     inkscape:label="shirt shadow"
     sodipodi:insensitive="true"
     style="display:inline"
     transform="translate(0,-87.000005)">
    <path
       style="fill:#e6e6e6;fill-opacity:1;stroke:none;stroke-width:0.26458332px;stroke-linecap:butt;stroke-linejoin:miter;stroke-opacity:1"
       d="m 130.79549,239.63774 c -1.35642,6.19365 3.89375,13.65036 1.62759,18.31934 -6.65975,13.72108 -13.81795,26.60041 -12.60677,33.63287 -0.62209,-9.69914 -0.60528,-22.76372 -10.58534,-38.40499 -4.0176,-6.29659 -0.92941,-14.65205 -3.65578,-18.32078 -5.875336,-4.12486 -8.425918,-8.01223 -11.456539,-11.93389 l 9.387999,37.31331 11.05874,30.23254 4.53488,7.87636 16.70746,-16.38922 13.60464,-30.63032 -0.15912,-26.81149 c -3.90103,7.38953 -11.12058,11.15156 -18.45776,15.11627 z"
       id="path1946"
       inkscape:connector-curvature="0"
       sodipodi:nodetypes="cscsccccccccc" />
  </g>
  <g
     inkscape:groupmode="layer"
     id="layer4"
     inkscape:label="cardigan"
     style="display:inline"
     transform="translate(0,-87.000005)">
    <path
       style="fill:#3e4284;fill-opacity:1;stroke:none;stroke-width:0.26458332px;stroke-linecap:butt;stroke-linejoin:miter;stroke-opacity:1"
       d="m 95.18671,179.64806 c -0.164637,14.54773 -4.66219,28.70427 0,45.23056 2.908487,10.30986 4.569731,20.92758 8.32603,31.39137 10.49808,12.53893 13.8906,25.83918 16.08947,39.26731 6.64341,-12.57417 10.83481,-25.91459 21.82769,-37.12955 6.50568,-20.58256 9.2356,-41.68457 7.98848,-64.13289 l -0.33754,-6.07575 c 1.8559,2.90491 3.76314,4.26137 4.95061,7.87597 3.14711,9.57964 14.18123,12.42422 27.11583,17.8897 13.28702,5.6144 26.78024,7.86425 35.55438,15.97697 5.94191,5.494 9.9679,7.93013 13.53665,14.9006 7.07988,13.82836 10.48712,35.19998 10.37102,61.57327 l -159.824393,-2.55228 -87.8733091,-4.0505 1.9127353,-62.22015 c 6.6665519,-6.72386 11.6577448,-13.40654 20.2524918,-20.13998 2.316965,-1.8152 6.458965,-2.48685 10.463787,-3.82547 15.155523,-5.06577 23.594957,-12.53077 42.980286,-12.93909 5.468264,-4.69361 12.638094,-8.03817 20.13998,-7.42592 1.343106,-5.53665 3.686502,-9.87295 6.525802,-13.61417 z"
       id="path28"
       inkscape:connector-curvature="0"
       sodipodi:nodetypes="cscccscssssccccssccc" />
  </g>
  <g
     inkscape:groupmode="layer"
     id="layer11"
     inkscape:label="cardigan shadow"
     sodipodi:insensitive="true"
     transform="translate(0,-87.000005)">
    <path
       style="fill:#2d2f55;fill-opacity:1;stroke:none;stroke-width:0.26458332px;stroke-linecap:butt;stroke-linejoin:miter;stroke-opacity:1"
       d="m 118.36456,298.5752 c -7.45278,-17.53649 -8.53984,-31.88527 -41.123808,-52.60023 0.460494,-13.01362 9.299231,-39.24054 14.458028,-60.47619 -6.36327,19.26458 -16.160279,35.74361 -17.048456,58.98445 -0.183056,4.79003 -0.642606,2.62683 2.685737,4.99628 15.117013,10.77156 29.554869,26.40521 39.115769,49.09569 z"
       id="path1953"
       inkscape:connector-curvature="0"
       sodipodi:nodetypes="cccsccc" />
    <path
       style="fill:#2d2f55;fill-opacity:1;stroke:none;stroke-width:0.26458332px;stroke-linecap:butt;stroke-linejoin:miter;stroke-opacity:1"
       d="m 124.30849,294.46677 c 4.25117,-20.30864 18.01758,-33.56287 37.42574,-42.63443 4.49865,-2.6216 3.68298,-3.1596 1.91879,-6.85209 -8.84559,-17.42502 -4.66798,-36.85131 -12.79126,-53.57616 6.24839,20.77723 4.14217,54.75821 10.5763,56.0319 -22.42828,14.20267 -37.15233,29.53529 -37.12957,47.03078 z"
       id="path1985"
       inkscape:connector-curvature="0"
       sodipodi:nodetypes="cccccc" />
  </g>
  <g
     inkscape:groupmode="layer"
     id="layer5"
     inkscape:label="headphones"
     sodipodi:insensitive="true"
     style="display:inline"
     transform="translate(0,-87.000005)">
    <path
       style="fill:#333333;stroke:none;stroke-width:0.26458332px;stroke-linecap:butt;stroke-linejoin:miter;stroke-opacity:1"
       d="m 162.1887,171.54706 c 2.46367,0.0537 4.92825,0.10459 7.53843,-0.28128 0.20146,-0.55058 0.43934,-1.04279 0.56257,-1.51894 2.3407,0.51341 4.16816,0.29919 5.28815,0.11251 4.88544,-0.81429 8.16544,-15.49106 9.90122,-23.17785 0.89615,-3.96855 0.37061,-12.68245 -0.22503,-18.17098 -0.49981,-4.60555 -4.41581,-7.48775 -5.68195,-11.58893 l -2.58782,-8.38228 c 0.84956,-0.51474 2.11381,-0.88816 2.36279,-1.57519 0.81777,-2.25657 -0.73391,-4.58566 -1.87978,-6.46642 -1.26825,-2.081641 -2.33534,-3.342044 -3.52088,-5.06625 l -0.61883,0.450054 c -2.30535,-4.204738 -5.97183,-7.865026 -9.33864,-11.645183 l 4.50055,13.107863 3.71295,13.304766 1.26579,10.40753 c 0.46339,2.78099 2.97317,2.18545 4.80996,2.70033 0.37565,-0.4759 0.65858,-1.01912 1.63628,-0.89699 0.73362,0.0916 1.13298,0.6706 1.45785,1.17827 -1.06623,-0.35866 -2.10905,-0.44801 -3.12226,-0.1969 -3.15039,-1.71097 -6.42011,-3.82429 -9.5705,-5.1362 l -3.03105,-0.0957 c 1.39804,5.1461 1.44728,10.37987 2.1659,15.58317 1.77469,12.84988 -2.53386,25.24722 -5.6257,37.35459 z"
       id="path31"
       inkscape:connector-curvature="0"
       sodipodi:nodetypes="cccsssscsscccccccsccccsc" />
    <path
       style="fill:#333333;stroke:none;stroke-width:0.26458332px;stroke-linecap:butt;stroke-linejoin:miter;stroke-opacity:1"
       d="m 91.630448,167.4718 c -0.634882,0.33117 -1.387521,1.02765 -2.28752,0.63365 -0.20146,-0.55058 -0.43934,-1.04279 -0.56257,-1.51894 -2.3407,0.51341 -9.339515,1.77104 -10.459505,1.58436 -4.88544,-0.81429 -8.244999,-15.57062 -9.980777,-23.25741 -0.89615,-3.96855 0.04861,-14.80625 0.344369,-20.31908 0.114235,-2.1293 2.059452,-2.83654 2.077408,-3.22784 0.185789,-4.04872 3.664754,-6.99133 3.962557,-7.48594 L 84.739315,97.247373 c -0.809248,-0.716304 -2.125398,-1.374486 -2.36279,-1.57519 -1.24997,-1.056789 2.214815,-2.87517 3.34246,-4.778716 6.375002,-6.578463 8.31926,-5.366109 11.059302,-6.641444 l -10.295013,11.363893 -3.71295,13.304774 -1.26579,10.40753 c -0.46339,2.78099 -4.12678,0.87272 -5.96357,1.3876 -0.37565,-0.4759 -0.65858,-1.01912 -1.63628,-0.89699 -0.73362,0.0916 -0.695404,0.59104 -1.020274,1.09871 1.06623,-0.35866 1.643344,-0.45283 2.656554,-0.20172 3.15039,-1.71097 7.60185,-2.42718 10.75224,-3.73909 l 3.03105,-0.0957 c -1.39804,5.1461 -1.44728,10.37987 -2.1659,15.58317 -0.68139,14.04146 0.242125,23.67729 4.472094,35.0076 z"
       id="path31-5"
       inkscape:connector-curvature="0"
       sodipodi:nodetypes="cccssssscsccccccscccccc" />
  </g>
  <g
     inkscape:groupmode="layer"
     id="layer6"
     inkscape:label="hairfill"
     sodipodi:insensitive="true"
     transform="translate(0,-87.000005)">
    <path
       style="fill:#c4af94;fill-opacity:1;stroke:none;stroke-width:0.26458332px;stroke-linecap:butt;stroke-linejoin:miter;stroke-opacity:1"
       d="m 165.6485,118.60929 c 2.68719,0.0638 5.59545,-0.31456 8.01661,0.2813 -1.0011,-6.53834 -2.20469,-12.9832 -3.54418,-19.63367 -0.17753,-0.881426 -2.80107,-14.228116 -2.81285,-15.189369 -0.0334,-2.721777 -9.14368,-11.422158 -9.67619,-11.87021 -7.86484,-6.617514 -14.75185,-7.941121 -22.44651,-9.001108 -9.52604,-1.312272 -16.00548,1.686605 -22.89657,6.638317 -6.33397,4.551385 -10.86268,8.447022 -15.920705,13.389148 -4.85024,4.739104 -9.988499,9.202576 -12.489035,15.020598 -2.72555,6.341564 -3.085078,13.815724 -3.881729,20.477514 4.94112,-1.31543 6.063917,-1.67941 9.326912,-1.84078 2.231163,-2.70984 5.503683,-4.97869 5.637429,-9.18557 0.216287,-6.80316 1.58031,-11.098664 4.106754,-16.033225 2.008464,-3.922868 7.682224,-5.54253 12.151504,-5.11938 7.45618,0.70595 12.8399,0.297186 18.33974,0.168772 5.98536,-0.139751 11.39593,-0.418375 17.04586,0.787596 4.92982,1.052264 7.97656,3.232774 10.85758,6.244519 4.37864,4.57733 4.60957,11.872828 5.68195,17.833448 0.46991,2.61189 1.43615,4.52308 2.50343,7.0321 z"
       id="path50"
       inkscape:connector-curvature="0"
       sodipodi:nodetypes="ccsssssssccsssssssc" />
  </g>
  <g
     inkscape:groupmode="layer"
     id="layer8"
     inkscape:label="hair"
     transform="translate(0,-87.000005)">
    <path
       style="fill:#c4af94;fill-opacity:1;stroke:none;stroke-width:0.26458332px;stroke-linecap:butt;stroke-linejoin:miter;stroke-opacity:1"
       d="m 165.6485,118.60929 c 2.07069,2.15275 3.64709,4.49561 6.32891,6.4133 -1.85549,-1.50033 -2.47166,-3.18657 -3.31916,-4.8381 1.47922,1.24015 2.82734,2.59946 4.4443,3.54419 -1.73484,-1.28018 -1.73793,-2.92115 -2.30654,-4.4443 0.96447,0.99237 1.24368,2.14513 4.55681,2.58782 -1.23427,-0.86593 -1.55585,-1.9057 -1.68771,-2.98161 0.74408,1.20545 1.75416,1.34689 2.81285,1.2939 -3.3254,-0.77696 -1.55476,-2.47525 -2.64407,-3.82547 1.19356,0.15993 1.96498,0.63291 2.58781,1.969 -0.56504,-2.74329 -3.68203,-2.79104 -2.70033,-4.78184 1.28265,0.44246 2.55312,0.74487 3.93799,2.36279 -0.86323,-2.11354 -3.78441,-2.84216 -4.10676,-4.8381 2.26863,0.43863 2.89753,3.72569 5.51318,3.54419 -3.12317,-0.46498 -3.40401,-4.28957 -5.96323,-6.07575 2.77283,2.10784 6.87412,1.15527 7.36965,5.62569 0.25023,-4.7507 -5.95246,-4.17064 -8.26977,-7.87597 -0.87349,-1.3967 -1.89269,-1.36348 -3.20664,-0.67508 z"
       id="path53"
       inkscape:connector-curvature="0"
       sodipodi:nodetypes="ccccccccccccccccscc" />
    <path
       style="fill:#c4af94;fill-opacity:1;stroke:none;stroke-width:0.26458332px;stroke-linecap:butt;stroke-linejoin:miter;stroke-opacity:1"
       d="m 164.07331,87.217939 c 7.55936,2.554982 5.68396,0.904202 4.63061,-0.736752 0.78309,1.553863 1.78884,2.732032 -4.18055,0.427338 z"
       id="path57"
       inkscape:connector-curvature="0"
       sodipodi:nodetypes="cccc" />
    <path
       style="fill:#c4af94;fill-opacity:1;stroke:none;stroke-width:0.26458332px;stroke-linecap:butt;stroke-linejoin:miter;stroke-opacity:1"
       d="m 163.62325,87.527353 c 7.55936,2.554982 5.14211,-0.104767 4.08876,-1.745721 0.77916,1.553863 1.84348,3.741001 -3.6387,1.436307 z"
       id="path57-9"
       inkscape:connector-curvature="0"
       sodipodi:nodetypes="cccc" />
    <path
       style="fill:#c4af94;fill-opacity:1;stroke:none;stroke-width:0.26458332px;stroke-linecap:butt;stroke-linejoin:miter;stroke-opacity:1"
       d="m 84.216609,98.919378 c -7.328346,4.438402 -5.642122,13.232952 -10.295016,15.695682 5.135707,-2.67944 4.381594,-11.12835 9.619935,-13.8392 -2.393152,2.33518 -8.928305,1.93841 -5.006867,8.43853 -2.338813,-5.52483 2.314731,-6.44493 5.850721,-8.10099 -7.170284,4.86625 -1.614935,12.25601 -9.282393,14.51428 8.238994,-0.37478 1.448379,-6.16147 11.195127,-15.63942 z"
       id="path879"
       inkscape:connector-curvature="0"
       sodipodi:nodetypes="cccccccc" />
    <path
       style="fill:#c4af94;fill-opacity:1;stroke:none;stroke-width:0.26458332px;stroke-linecap:butt;stroke-linejoin:miter;stroke-opacity:1"
       d="m 89.324253,116.88103 c -7.133435,12.16057 -10.284493,7.67708 -15.627688,13.03591 5.059281,-6.9432 12.238831,-3.63693 10.013732,-11.13887 -2.521466,5.55612 -6.755976,8.24591 -7.988481,12.48904 0.413916,-4.03931 4.191387,-7.08009 5.963234,-11.58893 -3.2506,2.31511 -5.651724,4.73639 -7.707199,7.20089 1.491868,-2.38154 3.078275,-4.76309 5.45692,-7.14463 -1.156354,1.21142 -1.883418,2.68042 -3.712956,3.48793 2.49874,-2.16531 3.123267,-4.56489 4.55681,-6.86335 -2.510058,2.21318 -2.7288,4.67581 -5.231892,6.30078 3.566899,-3.48357 2.819205,-6.10806 5.231892,-9.16988 -0.862269,1.46336 -1.536408,3.30297 -2.812846,3.93799 1.907102,-2.35132 1.847345,-4.21501 3.656701,-8.32603 -2.050428,3.62111 -3.879291,5.28414 -4.613067,5.28815 2.542402,-2.10441 4.169978,-5.89938 6.975856,-8.88859 -3.556516,2.69435 -4.947239,6.31152 -6.55393,9.38084 1.586063,-3.6911 3.541459,-7.68052 6.385161,-11.01229 -2.402967,2.72353 -3.716245,5.50021 -7.482171,8.15725 3.421621,-2.78104 5.815253,-7.10407 8.551053,-10.91384 z"
       id="path881"
       inkscape:connector-curvature="0"
       sodipodi:nodetypes="cccccccccccccccccccc" />
    <path
       style="fill:#c4af94;fill-opacity:1;stroke:none;stroke-width:0.26458332px;stroke-linecap:butt;stroke-linejoin:miter;stroke-opacity:1"
       d="m 96.843558,85.209133 c -7.136247,-0.897653 -9.762518,5.47808 -12.729486,7.279679 3.14125,-4.527011 6.710132,-8.723077 15.474288,-9.1891 -8.338224,-0.49282 -12.258456,4.205716 -15.951645,8.473065 3.054875,-5.162207 7.081919,-9.465665 16.428995,-9.069761 -10.365752,-1.267462 -13.802011,2.970701 -16.548333,7.757033 2.1069,-7.103744 7.681882,-10.369477 17.741723,-8.671965 -5.959114,1.400795 -12.752524,2.310828 -13.525079,6.762541 -0.966957,-2.842414 1.877021,-4.80112 14.440009,-7.79681 -7.951054,1.329339 -12.012473,1.541622 -14.042213,6.60342 0.02801,-5.092834 7.798036,-6.467355 15.116263,-7.279674 -4.920581,0.802646 -9.23881,2.528899 -12.570366,5.768049 3.089026,-3.845929 7.664736,-6.098984 13.723976,-6.762541 -2.39732,-0.630631 -6.143109,0.831187 -11.615654,4.972455 3.389235,-2.545632 4.90837,-6.596466 12.291914,-5.927167 -7.939298,0.210037 -11.68155,2.36315 -13.92288,5.211135 -0.01826,-4.140278 1.990184,-6.338356 14.67869,-5.927169 z"
       id="path883"
       inkscape:connector-curvature="0"
       sodipodi:nodetypes="cccccccccccccccccc" />
    <path
       style="fill:#c4af94;fill-opacity:1;stroke:none;stroke-width:0.26458332px;stroke-linecap:butt;stroke-linejoin:miter;stroke-opacity:1"
       d="m 96.848394,88.20957 c -4.54685,-6.557287 -5.02399,-4.86232 -5.1563,-2.916871 0.30056,-1.712088 1.58233,-2.221157 4.6105,2.897054 z"
       id="path57-9-1"
       inkscape:connector-curvature="0"
       sodipodi:nodetypes="cccc" />
    <path
       style="fill:#c4af94;fill-opacity:1;stroke:none;stroke-width:0.26880667px;stroke-linecap:butt;stroke-linejoin:miter;stroke-opacity:1"
       d="m 85.888722,101.67833 c -7.552384,2.15683 -6.032841,3.20376 -4.179995,4.00212 -1.582385,-0.88136 -1.740692,-2.3012 4.017867,-3.479 z"
       id="path57-9-3"
       inkscape:connector-curvature="0"
       sodipodi:nodetypes="cccc" />
    <path
       style="fill:#c4af94;fill-opacity:1;stroke:none;stroke-width:0.26458332px;stroke-linecap:butt;stroke-linejoin:miter;stroke-opacity:1"
       d="m 83.401204,118.32779 c -2.560315,7.55756 -0.914504,6.93155 0.727198,5.87936 -1.554419,0.77806 -2.726657,0.0515 -0.418105,-5.42908 z"
       id="path57-9-38"
       inkscape:connector-curvature="0"
       sodipodi:nodetypes="cccc" />
    <path
       style="fill:#c4af94;fill-opacity:1;stroke:none;stroke-width:0.26458332px;stroke-linecap:butt;stroke-linejoin:miter;stroke-opacity:1"
       d="m 105.01828,77.734564 c -6.868213,-8.78997 -1.19474,-7.103242 0.63647,-5.64871 -0.82523,0.419704 -5.59613,-2.996402 -0.67625,4.65422 -1.53074,-5.680599 -2.68642,-10.692891 1.51162,-6.165847 -3.93285,-2.820102 -2.10835,1.248047 -0.23867,5.370253 -3.24158,-6.898551 -1.30735,-10.065193 1.43206,-6.364745 -2.68753,-0.863487 -1.79044,2.072037 -0.19889,6.404525 z"
       id="path927"
       inkscape:connector-curvature="0"
       sodipodi:nodetypes="cccccccc" />
    <path
       style="fill:#c4af94;fill-opacity:1;stroke:none;stroke-width:0.26458332px;stroke-linecap:butt;stroke-linejoin:miter;stroke-opacity:1"
       d="m 113.09571,73.205649 c -6.86821,-8.78997 -1.19474,-7.103242 0.63647,-5.64871 -0.82523,0.419704 -5.59613,-2.996402 -0.67625,4.65422 -1.53074,-5.680599 -2.68642,-10.692891 1.51162,-6.165847 -3.93285,-2.820102 -2.10835,1.248047 -0.23867,5.370253 -3.24158,-6.898551 -1.30735,-10.065193 1.43206,-6.364745 -2.68753,-0.863487 -1.79044,2.072037 -0.19889,6.404525 z"
       id="path927-2"
       inkscape:connector-curvature="0"
       sodipodi:nodetypes="cccccccc" />
    <path
       style="fill:#c4af94;fill-opacity:1;stroke:none;stroke-width:0.26458332px;stroke-linecap:butt;stroke-linejoin:miter;stroke-opacity:1"
       d="m 104.9785,76.740072 c -4.51355,-2.404829 -3.94278,-6.093943 -0.83538,-5.927167 -3.38704,-0.724885 -5.755078,2.219657 -1.03427,6.444303 z"
       id="path944"
       inkscape:connector-curvature="0"
       sodipodi:nodetypes="cccc" />
    <path
       style="fill:#c4af94;fill-opacity:1;stroke:none;stroke-width:0.26458332px;stroke-linecap:butt;stroke-linejoin:miter;stroke-opacity:1"
       d="m 103.30575,80.829523 c -6.438928,-3.435954 -11.97832,-2.404657 -14.837808,5.529372 4.265664,-7.581038 9.508395,-7.283402 14.917368,-4.57466 z"
       id="path946"
       inkscape:connector-curvature="0"
       sodipodi:nodetypes="cccc" />
    <path
       style="fill:#c4af94;fill-opacity:1;stroke:none;stroke-width:0.26458332px;stroke-linecap:butt;stroke-linejoin:miter;stroke-opacity:1"
       d="m 103.18841,78.21192 c -6.438927,-3.435955 -13.768403,0.220799 -16.627892,8.154829 4.265665,-7.581039 11.298479,-9.90886 16.707452,-7.200118 z"
       id="path946-9"
       inkscape:connector-curvature="0"
       sodipodi:nodetypes="cccc" />
    <path
       style="fill:#c4af94;fill-opacity:1;stroke:none;stroke-width:0.26458332px;stroke-linecap:butt;stroke-linejoin:miter;stroke-opacity:1"
       d="m 99.986155,81.748304 c -6.43893,-3.435954 -11.407682,1.211134 -14.26717,9.145163 4.265664,-7.581038 8.93775,-10.899193 14.346725,-8.190451 z"
       id="path946-6"
       inkscape:connector-curvature="0"
       sodipodi:nodetypes="cccc" />
    <path
       style="fill:#c4af94;fill-opacity:1;stroke:none;stroke-width:0.26458332px;stroke-linecap:butt;stroke-linejoin:miter;stroke-opacity:1"
       d="M 102.17203,86.762365 C 95.733109,83.32641 92.461107,84.579063 86.912302,91.616654 93.251798,85.95583 96.843147,85.008818 102.25159,87.717076 Z"
       id="path946-5"
       inkscape:connector-curvature="0"
       sodipodi:nodetypes="cccc" />
    <path
       style="fill:#c4af94;fill-opacity:1;stroke:none;stroke-width:0.26458332px;stroke-linecap:butt;stroke-linejoin:miter;stroke-opacity:1"
       d="m 100.49839,88.044328 c -6.438921,-3.435955 -8.613913,-1.902017 -14.162718,5.135574 6.339496,-5.660824 8.833835,-6.889121 14.242278,-4.180863 z"
       id="path946-5-7"
       inkscape:connector-curvature="0"
       sodipodi:nodetypes="cccc" />
    <path
       style="fill:#c4af94;fill-opacity:1;stroke:none;stroke-width:0.26458332px;stroke-linecap:butt;stroke-linejoin:miter;stroke-opacity:1"
       d="m 98.895068,89.788293 c -6.438921,-3.435955 -8.473271,-1.536347 -14.022076,5.501246 6.339496,-5.660826 8.693193,-7.254793 14.101636,-4.546535 z"
       id="path946-5-5"
       inkscape:connector-curvature="0"
       sodipodi:nodetypes="cccc" />
    <path
       style="fill:#c4af94;fill-opacity:1;stroke:none;stroke-width:0.26458332px;stroke-linecap:butt;stroke-linejoin:miter;stroke-opacity:1"
       d="m 97.854314,91.363486 c -6.438921,-3.435955 -7.826316,-2.464587 -13.375121,4.573005 6.339496,-5.660825 8.046238,-6.326552 13.454681,-3.618293 z"
       id="path946-5-3"
       inkscape:connector-curvature="0"
       sodipodi:nodetypes="cccc" />
    <path
       style="fill:#c4af94;fill-opacity:1;stroke:none;stroke-width:0.26880667px;stroke-linecap:butt;stroke-linejoin:miter;stroke-opacity:1"
       d="m 88.449106,93.064337 c -6.647265,4.183816 -4.895452,4.763803 -2.893264,5.011821 -1.924853,-0.15502 -2.528522,-1.827765 2.883978,-4.464232 z"
       id="path57-9-3-2"
       inkscape:connector-curvature="0"
       sodipodi:nodetypes="cccc" />
    <path
       style="fill:#c4af94;fill-opacity:1;stroke:none;stroke-width:0.26458332px;stroke-linecap:butt;stroke-linejoin:miter;stroke-opacity:1"
       d="m 96.672919,93.613763 c -6.43892,-3.435955 -8.670169,-1.451962 -14.218975,5.585629 6.339496,-5.660824 8.383781,-6.945378 13.792223,-4.23712 z"
       id="path946-5-7-1"
       inkscape:connector-curvature="0"
       sodipodi:nodetypes="cccc" />
    <path
       style="fill:#c4af94;fill-opacity:1;stroke:none;stroke-width:0.26880667px;stroke-linecap:butt;stroke-linejoin:miter;stroke-opacity:1"
       d="m 86.090731,97.088552 c -6.727723,3.578698 -4.629268,4.736908 -2.893264,5.011818 -1.924853,-0.15502 -2.528522,-1.82776 2.883978,-4.464229 z"
       id="path57-9-3-2-8"
       inkscape:connector-curvature="0"
       sodipodi:nodetypes="cccc" />
    <path
       style="fill:#c4af94;fill-opacity:1;stroke:none;stroke-width:0.26458332px;stroke-linecap:butt;stroke-linejoin:miter;stroke-opacity:1"
       d="m 83.949391,100.31174 c -1.531017,1.15881 -2.367024,2.61548 -3.122261,4.10676 0.877914,-1.23476 1.71815,-2.50092 3.031355,-3.37294 z"
       id="path1056"
       inkscape:connector-curvature="0"
       sodipodi:nodetypes="cccc" />
    <path
       style="fill:#c4af94;fill-opacity:1;stroke:none;stroke-width:0.26458332px;stroke-linecap:butt;stroke-linejoin:miter;stroke-opacity:1"
       d="m 84.171217,100.90207 c -1.607043,1.05085 -2.541192,2.44661 -3.397141,3.88246 0.960705,-1.1715 1.885979,-2.37692 3.256014,-3.15662 z"
       id="path1056-0"
       inkscape:connector-curvature="0"
       sodipodi:nodetypes="cccc" />
    <path
       style="fill:#c4af94;fill-opacity:1;stroke:none;stroke-width:0.26458332px;stroke-linecap:butt;stroke-linejoin:miter;stroke-opacity:1"
       d="m 84.624475,99.960131 c -1.531017,1.158809 -2.367024,2.615479 -3.122261,4.106759 0.877914,-1.23476 1.71815,-2.50092 3.031355,-3.37294 z"
       id="path1056-4"
       inkscape:connector-curvature="0"
       sodipodi:nodetypes="cccc" />
    <path
       style="fill:#c4af94;fill-opacity:1;stroke:none;stroke-width:0.26458332px;stroke-linecap:butt;stroke-linejoin:miter;stroke-opacity:1"
       d="m 85.130788,98.975636 c -1.531017,1.158814 -2.367024,2.615484 -3.122261,4.106764 0.877914,-1.23476 1.71815,-2.50092 3.031355,-3.372944 z"
       id="path1056-3"
       inkscape:connector-curvature="0"
       sodipodi:nodetypes="cccc" />
    <path
       style="fill:#c4af94;fill-opacity:1;stroke:none;stroke-width:0.26458332px;stroke-linecap:butt;stroke-linejoin:miter;stroke-opacity:1"
       d="m 82.909019,102.27051 c -1.442184,1.26766 -2.169438,2.78156 -2.813608,4.32408 0.785276,-1.29565 1.530678,-2.61986 2.776604,-3.58557 z"
       id="path1056-6"
       inkscape:connector-curvature="0"
       sodipodi:nodetypes="cccc" />
    <path
       style="fill:#c4af94;fill-opacity:1;stroke:none;stroke-width:0.26458332px;stroke-linecap:butt;stroke-linejoin:miter;stroke-opacity:1"
       d="m 83.083959,106.10035 c -1.612314,1.04274 -2.553478,2.43378 -3.416645,3.8653 0.966591,-1.16665 1.897922,-2.36739 3.271865,-3.14018 z"
       id="path1056-2"
       inkscape:connector-curvature="0"
       sodipodi:nodetypes="cccc" />
    <path
       style="fill:#c4af94;fill-opacity:1;stroke:none;stroke-width:0.26458332px;stroke-linecap:butt;stroke-linejoin:miter;stroke-opacity:1"
       d="m 81.220931,112.36478 c -1.531017,1.15881 -2.367024,2.61548 -3.122261,4.10676 0.877914,-1.23476 1.71815,-2.50092 3.031355,-3.37294 z"
       id="path1056-7"
       inkscape:connector-curvature="0"
       sodipodi:nodetypes="cccc" />
    <path
       style="fill:#c4af94;fill-opacity:1;stroke:none;stroke-width:0.26458332px;stroke-linecap:butt;stroke-linejoin:miter;stroke-opacity:1"
       d="m 80.6467,115.80515 c -1.393455,1.32104 -2.063219,2.86124 -2.648881,4.4269 0.735959,-1.32429 1.430997,-2.67561 2.639696,-3.68753 z"
       id="path1056-20"
       inkscape:connector-curvature="0"
       sodipodi:nodetypes="cccc" />
    <path
       style="fill:#c4af94;fill-opacity:1;stroke:none;stroke-width:0.26458332px;stroke-linecap:butt;stroke-linejoin:miter;stroke-opacity:1"
       d="m 83.49211,117.59397 c -1.531017,1.15881 -2.367024,2.61548 -3.122261,4.10676 0.877914,-1.23476 1.71815,-2.50092 3.031355,-3.37294 z"
       id="path1056-8"
       inkscape:connector-curvature="0"
       sodipodi:nodetypes="cccc" />
    <path
       style="fill:#c4af94;fill-opacity:1;stroke:none;stroke-width:0.26458332px;stroke-linecap:butt;stroke-linejoin:miter;stroke-opacity:1"
       d="m 86.77933,119.79679 c -1.011846,1.63188 -1.268061,3.29175 -1.436464,4.95486 0.375129,-1.46788 0.703802,-2.95149 1.61554,-4.23744 z"
       id="path1056-1"
       inkscape:connector-curvature="0"
       sodipodi:nodetypes="cccc" />
    <path
       style="fill:#c4af94;fill-opacity:1;stroke:none;stroke-width:0.26458332px;stroke-linecap:butt;stroke-linejoin:miter;stroke-opacity:1"
       d="m 88.470052,117.24629 c -0.809648,1.74107 -0.865735,3.41966 -0.834249,5.09098 0.197079,-1.50218 0.34616,-3.01444 1.09775,-4.40009 z"
       id="path1056-16"
       inkscape:connector-curvature="0"
       sodipodi:nodetypes="cccc" />
    <path
       style="fill:#c4af94;fill-opacity:1;stroke:none;stroke-width:0.26458332px;stroke-linecap:butt;stroke-linejoin:miter;stroke-opacity:1"
       d="m 106.41273,79.371494 c -6.86821,-8.78997 -1.19474,-7.103242 0.63647,-5.64871 -0.82523,0.419704 -5.59613,-2.996402 -0.67625,4.65422 -1.53074,-5.680599 -2.68642,-10.692891 1.51162,-6.165847 -3.93285,-2.820102 -2.10835,1.248047 -0.23867,5.370253 -3.24158,-6.898551 -1.30735,-10.065193 1.43206,-6.364745 -3.69069,-1.741252 -1.93039,1.949578 -0.19889,6.404525 z"
       id="path927-2-9"
       inkscape:connector-curvature="0"
       sodipodi:nodetypes="cccccccc" />
    <path
       style="fill:#c4af94;fill-opacity:1;stroke:none;stroke-width:0.26458332px;stroke-linecap:butt;stroke-linejoin:miter;stroke-opacity:1"
       d="m 107.54645,73.921682 c -6.86821,-8.78997 0.85391,-4.258997 2.68512,-2.804465 -0.82523,0.419704 -7.64478,-5.840647 -2.7249,1.809975 -1.53074,-5.680599 -0.63777,-7.848646 3.56027,-3.321602 -3.93285,-2.820102 -4.157,-1.596198 -2.28732,2.526008 -3.24158,-6.898551 0.7413,-7.220948 3.48071,-3.5205 -2.68753,-0.863487 -3.83909,-0.772208 -2.24754,3.56028 z"
       id="path927-20"
       inkscape:connector-curvature="0"
       sodipodi:nodetypes="cccccccc" />
    <path
       style="fill:#c4af94;fill-opacity:1;stroke:none;stroke-width:0.26458332px;stroke-linecap:butt;stroke-linejoin:miter;stroke-opacity:1"
       d="m 109.88664,71.817326 c -6.86821,-8.78997 0.85391,-4.258997 2.68512,-2.804465 -0.82523,0.419704 -7.64478,-5.840647 -2.7249,1.809975 -1.53074,-5.680599 -0.63777,-7.848646 3.56027,-3.321602 -3.93285,-2.820102 -4.157,-1.596198 -2.28732,2.526008 -3.24158,-6.898551 0.7413,-7.220948 3.48071,-3.5205 -2.68753,-0.863487 -3.83909,-0.772208 -2.24754,3.56028 z"
       id="path927-20-4"
       inkscape:connector-curvature="0"
       sodipodi:nodetypes="cccccccc" />
    <path
       style="fill:#c4af94;fill-opacity:1;stroke:none;stroke-width:0.26458332px;stroke-linecap:butt;stroke-linejoin:miter;stroke-opacity:1"
       d="m 116.68643,68.500927 c -2.40354,-4.263354 -0.79675,-3.940844 0.7757,-2.20777 -0.24756,-2.635872 -4.70964,-2.199991 -2.92381,2.207771 z"
       id="path944-1"
       inkscape:connector-curvature="0"
       sodipodi:nodetypes="cccc" />
    <path
       style="fill:#c4af94;fill-opacity:1;stroke:none;stroke-width:0.26458332px;stroke-linecap:butt;stroke-linejoin:miter;stroke-opacity:1"
       d="m 116.01735,67.411746 c -1.51919,-4.540339 -0.1037,-3.495023 0.34806,-3.769121 -0.78641,0.737313 -0.39585,1.723984 0.01,2.714959 -0.39657,-1.933499 0.57105,-2.524251 1.39229,-3.291765 -0.94936,1.370686 -1.25304,2.437448 -1.09394,3.649783 0.16867,-1.155645 0.38916,-2.273103 1.05416,-3.063033 -0.32465,0.880195 -0.59321,1.760391 -0.26575,2.640586 -0.23543,-0.874031 0.16976,-1.664502 0.52432,-2.461577 -0.30044,0.978439 -0.27209,1.978799 -0.17901,2.983473 z"
       id="path1196"
       inkscape:connector-curvature="0"
       sodipodi:nodetypes="cccccccccc" />
    <path
       style="fill:#c4af94;fill-opacity:1;stroke:none;stroke-width:0.26458332px;stroke-linecap:butt;stroke-linejoin:miter;stroke-opacity:1"
       d="m 116.70874,68.207582 c 4.23339,-10.320576 5.57862,-4.556579 5.22222,-2.245308 -0.77338,-0.508954 -0.16923,-6.345586 -4.37803,1.718112 4.17635,-4.143723 7.95795,-7.630578 6.10497,-1.741255 0.50156,-4.81339 -2.12857,-1.213242 -4.78327,2.452931 4.38687,-6.233235 8.09583,-6.121661 6.23834,-1.908895 -0.31566,-4.0686 -2.64982,-0.711134 -5.66203,2.999834 z"
       id="path927-2-9-5"
       inkscape:connector-curvature="0"
       sodipodi:nodetypes="cccccccc" />
    <path
       style="fill:#c4af94;fill-opacity:1;stroke:none;stroke-width:0.26458332px;stroke-linecap:butt;stroke-linejoin:miter;stroke-opacity:1"
       d="m 132.79242,66.663999 c 4.23339,-10.320576 5.57862,-4.556579 5.22222,-2.245308 -0.77338,-0.508954 -0.16923,-6.345586 -4.37803,1.718112 4.17635,-4.143723 7.95795,-7.630578 6.10497,-1.741255 0.50156,-4.81339 -2.12857,-1.213242 -4.78327,2.452931 4.38687,-6.233235 8.09583,-6.121661 6.23834,-1.908895 -0.31566,-4.0686 -2.64982,-0.711134 -5.66203,2.999834 z"
       id="path927-2-9-5-7"
       inkscape:connector-curvature="0"
       sodipodi:nodetypes="cccccccc" />
    <path
       style="fill:#c4af94;fill-opacity:1;stroke:none;stroke-width:0.26458332px;stroke-linecap:butt;stroke-linejoin:miter;stroke-opacity:1"
       d="m 133.66179,69.903937 c -6.86821,-8.78997 -1.19474,-7.103242 0.63647,-5.64871 -0.82523,0.419705 -5.59613,-2.996402 -0.67625,4.654221 -1.53074,-5.6806 -2.68642,-10.692892 1.51162,-6.165848 -3.93285,-2.820102 -2.10835,1.248047 -0.23867,5.370253 -3.24158,-6.898551 -1.30735,-10.065193 1.43206,-6.364745 -2.68753,-0.863487 -1.79044,2.072037 -0.19889,6.404525 z"
       id="path927-2-1"
       inkscape:connector-curvature="0"
       sodipodi:nodetypes="cccccccc" />
    <path
       style="fill:#c4af94;fill-opacity:1;stroke:none;stroke-width:0.3011418px;stroke-linecap:butt;stroke-linejoin:miter;stroke-opacity:1"
       d="m 134.60469,63.112839 c 1.49223,-4.591198 2.1961,-2.556105 2.82031,-2.334509 -1.25768,-0.202559 -1.52257,0.850617 -1.77532,1.920821 0.88154,-1.725379 2.22095,-1.253324 3.53272,-1.040066 -1.83428,0.09387 -2.83415,0.566308 -3.4749,1.565962 0.92562,-0.65893 1.87705,-1.24341 3.05001,-1.189323 -0.89781,0.321825 -1.74049,0.695122 -1.99739,1.615417 0.34335,-0.831471 1.26126,-1.016229 2.13381,-1.252074 -0.9386,0.413224 -1.56849,1.143621 -2.1376,1.936459 z"
       id="path1196-1"
       inkscape:connector-curvature="0"
       sodipodi:nodetypes="cccccccccc" />
    <path
       style="fill:#c4af94;fill-opacity:1;stroke:none;stroke-width:0.26458332px;stroke-linecap:butt;stroke-linejoin:miter;stroke-opacity:1"
       d="m 125.40788,65.271721 c 1.00388,-11.109821 3.53647,-2.522222 3.87704,-0.208565 -0.88903,-0.258433 -1.58021,-9.489929 -3.22571,-0.544003 2.76972,-5.190478 4.90422,-6.160897 4.86913,0.01295 -0.93923,-4.747433 -1.94002,-4.008096 -3.39639,0.277608 2.35509,-7.249233 5.48065,-4.759626 4.94717,-0.186545 -1.36949,-2.468388 -2.27185,-3.189613 -4.07495,1.059191 z"
       id="path927-20-4-5"
       inkscape:connector-curvature="0"
       sodipodi:nodetypes="cccccccc" />
    <path
       style="fill:#c4af94;fill-opacity:1;stroke:none;stroke-width:0.26458332px;stroke-linecap:butt;stroke-linejoin:miter;stroke-opacity:1"
       d="m 120.18227,66.345762 c 4.23339,-10.320576 5.57862,-4.556579 5.22222,-2.245308 -0.77338,-0.508955 -0.16923,-6.345586 -4.37803,1.718112 4.17635,-4.143723 7.95795,-7.630578 6.10497,-1.741255 0.50156,-4.81339 -2.12857,-1.213242 -4.78327,2.452931 4.38687,-6.233235 8.09583,-6.121661 6.23834,-1.908895 -0.31566,-4.0686 -2.64982,-0.711134 -5.66203,2.999834 z"
       id="path927-2-9-5-0"
       inkscape:connector-curvature="0"
       sodipodi:nodetypes="cccccccc" />
    <path
       style="fill:#c4af94;fill-opacity:1;stroke:none;stroke-width:0.26458332px;stroke-linecap:butt;stroke-linejoin:miter;stroke-opacity:1"
       d="m 117.44106,66.494977 c 2.1885,-10.938297 3.78636,-2.128774 3.87706,0.208054 -0.85622,-0.352203 -0.55428,-9.604613 -3.14884,-0.8865 3.30992,-4.863826 5.53611,-5.59995 4.83971,0.534599 -0.42515,-4.82074 -1.49939,-4.192891 -3.40659,-0.08791 3.11828,-6.955155 5.95909,-4.144982 4.93868,0.34461 -1.09712,-2.600915 -1.91701,-3.414675 -4.16498,0.616471 z"
       id="path927-20-4-1"
       inkscape:connector-curvature="0"
       sodipodi:nodetypes="cccccccc" />
    <path
       style="fill:#c4af94;fill-opacity:1;stroke:none;stroke-width:0.26458332px;stroke-linecap:butt;stroke-linejoin:miter;stroke-opacity:1"
       d="m 135.47788,67.835138 c 5.40745,-9.756809 6.07169,-3.875304 5.44833,-1.621327 -0.70879,-0.595627 0.57154,-6.322061 -4.54845,1.196119 4.63087,-3.628704 8.7931,-6.651028 6.26632,-1.01782 1.05917,-4.722124 -1.97265,-1.453069 -5.03657,1.878696 5.08348,-5.679438 8.75416,-5.136325 6.41831,-1.168773 -0.2553,-2.811272 -2.60691,-0.838464 -5.97308,2.31945 z"
       id="path927-2-4"
       inkscape:connector-curvature="0"
       sodipodi:nodetypes="cccccccc" />
    <path
       style="fill:#c4af94;fill-opacity:1;stroke:none;stroke-width:0.26458332px;stroke-linecap:butt;stroke-linejoin:miter;stroke-opacity:1"
       d="m 139.96621,66.089218 c -2.40354,-4.263355 -0.79675,-3.940845 0.7757,-2.207771 -0.24756,-2.635872 -4.70964,-2.199991 -2.92381,2.207772 z"
       id="path944-1-5"
       inkscape:connector-curvature="0"
       sodipodi:nodetypes="cccc" />
    <path
       style="fill:#c4af94;fill-opacity:1;stroke:none;stroke-width:0.26458332px;stroke-linecap:butt;stroke-linejoin:miter;stroke-opacity:1"
       d="m 143.01515,65.512302 c 7.10385,-4.788227 6.67148,1.653542 5.24196,3.309157 -0.81462,-0.5267 2.24746,-6.819503 -3.92853,-3.573949 5.75458,-1.22358 7.87157,-1.210001 3.12569,2.738959 3.02716,-3.775787 1.89661,-3.428842 -2.32002,-1.783152 7.10946,-2.844447 8.06804,0.87332 5.59601,3.744242 1.00652,-2.6373 -1.29025,-3.871659 -5.70193,-2.514985 z"
       id="path927-20-4-0"
       inkscape:connector-curvature="0"
       sodipodi:nodetypes="cccccccc" />
    <path
       style="fill:#c4af94;fill-opacity:1;stroke:none;stroke-width:0.26458332px;stroke-linecap:butt;stroke-linejoin:miter;stroke-opacity:1"
       d="m 149.06935,68.586164 c 10.83876,-2.637656 6.96475,1.837316 4.88503,2.906794 -0.0425,-0.92485 5.03555,-3.865014 -3.96245,-2.533389 5.80682,0.945127 10.85016,1.956725 4.99577,3.917267 4.18976,-2.422023 -0.26877,-2.435267 -4.79516,-2.429608 7.62137,-0.112121 9.71012,2.954797 5.20978,3.926702 3.10694,-2.645766 -0.98133,-2.562083 -5.754,-2.819401 z"
       id="path927-2-9-0"
       inkscape:connector-curvature="0"
       sodipodi:nodetypes="cccccccc" />
    <path
       style="fill:#c4af94;fill-opacity:1;stroke:none;stroke-width:0.26458332px;stroke-linecap:butt;stroke-linejoin:miter;stroke-opacity:1"
       d="m 160.71672,82.174438 c 10.83876,-2.637656 6.96475,1.837316 4.88503,2.906794 -0.0425,-0.92485 5.03555,-3.865014 -3.96245,-2.533389 5.80682,0.945127 10.85016,1.956725 4.99577,3.917268 4.18976,-2.422024 -0.26877,-2.435268 -4.79516,-2.429609 7.62137,-0.112121 9.71012,2.954797 5.20978,3.926703 3.10694,-2.645767 -0.98133,-2.562084 -5.754,-2.819402 z"
       id="path927-2-9-0-5"
       inkscape:connector-curvature="0"
       sodipodi:nodetypes="cccccccc" />
    <path
       style="fill:#c4af94;fill-opacity:1;stroke:none;stroke-width:0.26458332px;stroke-linecap:butt;stroke-linejoin:miter;stroke-opacity:1"
       d="m 156.38494,75.357406 c 10.83876,-2.637656 6.96475,1.837316 4.88503,2.906793 -0.0425,-0.924849 5.03555,-3.865013 -3.96245,-2.533388 5.80682,0.945127 10.85016,1.956725 4.99577,3.917267 4.18976,-2.422023 -0.26877,-2.435267 -4.79516,-2.429608 7.62137,-0.112121 9.71012,2.954797 5.20978,3.926702 3.10694,-2.645766 -0.98133,-2.562083 -5.754,-2.819401 z"
       id="path927-2-9-0-3"
       inkscape:connector-curvature="0"
       sodipodi:nodetypes="cccccccc" />
    <path
       style="fill:#c4af94;fill-opacity:1;stroke:none;stroke-width:0.26458332px;stroke-linecap:butt;stroke-linejoin:miter;stroke-opacity:1"
       d="m 151.26926,74.297424 c -6.86821,-8.789971 0.85391,-4.258998 2.68512,-2.804466 -0.82523,0.419704 -7.64478,-5.840647 -2.7249,1.809976 -1.53074,-5.6806 -0.63777,-7.848647 3.56027,-3.321603 -3.93285,-2.820102 -4.157,-1.596198 -2.28732,2.526008 -3.24158,-6.898551 0.7413,-7.220948 3.48071,-3.5205 -2.68753,-0.863487 -3.83909,-0.772208 -2.24754,3.560281 z"
       id="path927-20-5"
       inkscape:connector-curvature="0"
       sodipodi:nodetypes="cccccccc" />
    <path
       style="fill:#c4af94;fill-opacity:1;stroke:none;stroke-width:0.26458332px;stroke-linecap:butt;stroke-linejoin:miter;stroke-opacity:1"
       d="m 165.95284,87.771449 c 3.25747,3.508769 3.0181,1.765495 3.47514,1.500283 -1.02396,0.337032 -1.7029,-0.478504 -2.37829,-1.309527 1.50714,1.274441 2.48927,0.708134 3.55642,0.355006 -1.65797,0.176606 -2.73982,-0.06792 -3.72774,-0.788411 1.09519,0.405621 2.18169,0.747467 3.19366,0.542216 -0.92814,-0.136741 -1.82941,-0.32272 -2.44512,-1.031849 0.6544,0.625401 1.54236,0.648454 2.41187,0.719119 -1.00277,-0.205055 -1.86726,-0.709217 -2.70453,-1.272266 z"
       id="path1196-3"
       inkscape:connector-curvature="0"
       sodipodi:nodetypes="cccccccccc" />
    <path
       style="fill:#c4af94;fill-opacity:1;stroke:none;stroke-width:0.26458332px;stroke-linecap:butt;stroke-linejoin:miter;stroke-opacity:1"
       d="m 155.87704,73.216454 c 3.25747,3.508769 3.0181,1.765495 3.47514,1.500283 -1.02396,0.337032 -1.7029,-0.478504 -2.37829,-1.309527 1.50714,1.274441 2.48927,0.708134 3.55642,0.355006 -1.65797,0.176606 -2.73982,-0.06792 -3.72774,-0.788411 1.09519,0.405621 2.18169,0.747467 3.19366,0.542216 -0.92814,-0.136741 -1.82941,-0.32272 -2.44512,-1.031849 0.6544,0.625401 1.54236,0.648454 2.41187,0.719119 -1.00277,-0.205055 -1.86726,-0.709217 -2.70453,-1.272266 z"
       id="path1196-3-6"
       inkscape:connector-curvature="0"
       sodipodi:nodetypes="cccccccccc" />
    <path
       style="fill:#c4af94;fill-opacity:1;stroke:none;stroke-width:0.26458332px;stroke-linecap:butt;stroke-linejoin:miter;stroke-opacity:1"
       d="m 158.82176,74.164487 c -2.40354,-4.263355 -0.79675,-3.940845 0.7757,-2.207771 -0.24756,-2.635872 -4.70964,-2.199991 -2.92381,2.207772 z"
       id="path944-1-5-9"
       inkscape:connector-curvature="0"
       sodipodi:nodetypes="cccc" />
    <path
       style="fill:#c4af94;fill-opacity:1;stroke:none;stroke-width:0.26458332px;stroke-linecap:butt;stroke-linejoin:miter;stroke-opacity:1"
       d="m 151.90482,71.799617 c 9.58742,-5.702388 7.19727,-0.287548 5.52299,1.345177 -0.31205,-0.87165 3.67955,-5.172622 -4.53145,-1.258967 5.82849,-0.800631 10.94664,-1.313658 5.9254,2.27866 3.29448,-3.544954 -0.97162,-2.249161 -5.29704,-0.915378 7.25288,-2.343843 10.14971,-0.02496 6.13276,2.224875 2.19367,-3.441067 -1.69002,-2.161278 -6.32806,-1.006622 z"
       id="path927-2-9-5-0-4"
       inkscape:connector-curvature="0"
       sodipodi:nodetypes="cccccccc" />
    <path
       style="fill:#c4af94;fill-opacity:1;stroke:none;stroke-width:0.26458332px;stroke-linecap:butt;stroke-linejoin:miter;stroke-opacity:1"
       d="m 157.19051,82.134082 c 5.80455,-9.525914 6.22609,-3.622049 5.51046,-1.395646 -0.68367,-0.624303 0.83133,-6.293171 -4.59384,1.007847 4.77633,-3.434977 9.05947,-6.283381 6.30291,-0.758975 1.25268,-4.674515 -1.91116,-1.533051 -5.10965,1.669749 5.313,-5.465337 8.95821,-4.771565 6.46099,-0.903542 0.32845,-4.067588 -2.50492,-1.119214 -6.0635,2.071573 z"
       id="path927-2-9-2"
       inkscape:connector-curvature="0"
       sodipodi:nodetypes="cccccccc" />
    <path
       style="fill:#c4af94;fill-opacity:1;stroke:none;stroke-width:0.26458332px;stroke-linecap:butt;stroke-linejoin:miter;stroke-opacity:1"
       d="m 162.4343,87.526808 c 11.09675,1.139279 5.94917,4.060882 3.63154,4.373209 0.26925,-0.88581 6.03822,-1.958292 -2.88697,-3.712747 5.15632,2.832798 9.5709,5.472897 3.39794,5.362525 4.75853,-0.881274 0.56118,-2.384916 -3.70644,-3.893444 7.21998,2.443315 8.16271,6.032205 3.59647,5.442993 3.8129,-1.454283 -0.0679,-2.742744 -4.47969,-4.581473 z"
       id="path927-2-9-4"
       inkscape:connector-curvature="0"
       sodipodi:nodetypes="cccccccc" />
    <path
       style="fill:#c4af94;fill-opacity:1;stroke:none;stroke-width:0.26458332px;stroke-linecap:butt;stroke-linejoin:miter;stroke-opacity:1"
       d="m 167.98279,92.608392 c 1.44219,1.26766 2.16944,2.78156 2.81361,4.32408 -0.78527,-1.29565 -1.53068,-2.61986 -2.7766,-3.58557 z"
       id="path1056-6-2"
       inkscape:connector-curvature="0"
       sodipodi:nodetypes="cccc" />
    <path
       style="fill:#c4af94;fill-opacity:1;stroke:none;stroke-width:0.26458332px;stroke-linecap:butt;stroke-linejoin:miter;stroke-opacity:1"
       d="m 166.40853,91.77004 c 1.75221,0.785277 2.89406,2.016926 3.96499,3.30045 -1.13284,-1.005998 -2.23603,-2.051052 -3.71156,-2.605799 z"
       id="path1056-6-2-5"
       inkscape:connector-curvature="0"
       sodipodi:nodetypes="cccc" />
    <path
       style="fill:#c4af94;fill-opacity:1;stroke:none;stroke-width:0.19816433px;stroke-linecap:butt;stroke-linejoin:miter;stroke-opacity:1"
       d="m 167.06862,91.63796 c 1.34848,0.760517 2.02846,1.668762 2.63077,2.594179 -0.96928,-0.77731 -1.43535,-1.571753 -2.59617,-2.151119 z"
       id="path1056-6-2-2"
       inkscape:connector-curvature="0"
       sodipodi:nodetypes="cccc" />
    <path
       style="fill:#c4af94;fill-opacity:1;stroke:none;stroke-width:0.26458332px;stroke-linecap:butt;stroke-linejoin:miter;stroke-opacity:1"
       d="m 168.2922,90.6394 c 1.44219,1.26766 2.16944,2.78156 2.81361,4.32408 -0.78527,-1.29565 -1.53068,-2.61986 -2.7766,-3.58557 z"
       id="path1056-6-2-1"
       inkscape:connector-curvature="0"
       sodipodi:nodetypes="cccc" />
    <path
       style="fill:#c4af94;fill-opacity:1;stroke:none;stroke-width:0.11451235px;stroke-linecap:butt;stroke-linejoin:miter;stroke-opacity:1"
       d="m 169.52195,98.907424 c 0.31522,-0.36853 0.55029,-1.392944 0.77604,-2.49358 -0.22432,0.781097 -0.44546,1.61298 -0.70652,1.80726 z"
       id="path1056-6-2-8"
       inkscape:connector-curvature="0"
       sodipodi:nodetypes="cccc" />
    <path
       style="fill:#c4af94;fill-opacity:1;stroke:none;stroke-width:0.26458332px;stroke-linecap:butt;stroke-linejoin:miter;stroke-opacity:1"
       d="m 171.0813,103.94156 c 0.9807,-1.65079 1.20536,-3.31522 1.34217,-4.981235 -0.3472,1.474725 -0.64766,2.964315 -1.53482,4.267335 z"
       id="path1056-6-2-4"
       inkscape:connector-curvature="0"
       sodipodi:nodetypes="cccc" />
    <path
       style="fill:#c4af94;fill-opacity:1;stroke:none;stroke-width:0.26458332px;stroke-linecap:butt;stroke-linejoin:miter;stroke-opacity:1"
       d="m 172.20889,107.37636 c 0.84689,-1.72327 0.93903,-3.40026 0.94347,-5.07188 -0.22931,1.49759 -0.41087,3.0063 -1.19205,4.37549 z"
       id="path1056-6-2-9"
       inkscape:connector-curvature="0"
       sodipodi:nodetypes="cccc" />
    <path
       style="fill:#c4af94;fill-opacity:1;stroke:none;stroke-width:0.24942382px;stroke-linecap:butt;stroke-linejoin:miter;stroke-opacity:1"
       d="m 168.32061,102.71342 c 8.04838,-4.143918 2.29017,-5.406514 0.28628,-5.048994 0.73138,0.74266 5.89252,0.125153 -0.089,4.231834 2.38807,-4.051908 4.30654,-7.719223 -0.47781,-5.897186 4.25522,-0.512477 1.84045,2.045213 -0.62667,4.626986 4.23773,-4.267409 2.87212,-7.843131 -0.36907,-6.026787 3.84865,0.279994 1.55625,2.550847 -0.83032,5.477607 z"
       id="path927-2-9-0-5-0"
       inkscape:connector-curvature="0"
       sodipodi:nodetypes="cccccccc" />
    <path
       style="fill:#c4af94;fill-opacity:1;stroke:none;stroke-width:0.27055693px;stroke-linecap:butt;stroke-linejoin:miter;stroke-opacity:1"
       d="m 170.18501,110.17312 c 8.37962,-4.21288 1.97206,-5.76891 -0.18008,-5.44889 0.87066,0.82714 6.44317,0.33079 0.31569,4.57201 2.21103,-4.30122 3.94707,-8.20223 -1.09673,-6.3912 4.59407,-0.41285 2.20812,2.27211 -0.23257,4.98137 4.20867,-4.47282 2.36947,-8.383777 -0.99071,-6.52769 4.22765,0.43037 1.94728,2.80929 -0.37186,5.89419 z"
       id="path927-2-9-0-3-5"
       inkscape:connector-curvature="0"
       sodipodi:nodetypes="cccccccc" />
    <path
       style="fill:#c4af94;fill-opacity:1;stroke:none;stroke-width:0.26458332px;stroke-linecap:butt;stroke-linejoin:miter;stroke-opacity:1"
       d="m 170.50029,103.57849 c 1.44218,1.26766 2.16943,2.78156 2.8136,4.32408 -0.78527,-1.29565 -1.53067,-2.61986 -2.7766,-3.58557 z"
       id="path1056-6-25"
       inkscape:connector-curvature="0"
       sodipodi:nodetypes="cccc" />
    <path
       style="fill:#c4af94;fill-opacity:1;stroke:none;stroke-width:0.26458332px;stroke-linecap:butt;stroke-linejoin:miter;stroke-opacity:1"
       d="m 173.06555,107.8008 c 1.44218,1.26766 2.16943,2.78156 2.8136,4.32408 -0.78527,-1.29565 -1.53067,-2.61986 -2.7766,-3.58557 z"
       id="path1056-6-25-3"
       inkscape:connector-curvature="0"
       sodipodi:nodetypes="cccc" />
    <path
       style="fill:#c4af94;fill-opacity:1;stroke:none;stroke-width:0.26458332px;stroke-linecap:butt;stroke-linejoin:miter;stroke-opacity:1"
       d="m 172.67046,110.19389 c 1.71638,0.86075 2.80357,2.14091 3.81766,3.4698 -1.08801,-1.05432 -2.14469,-2.14638 -3.59469,-2.76478 z"
       id="path1056-6-25-34"
       inkscape:connector-curvature="0"
       sodipodi:nodetypes="cccc" />
    <path
       style="fill:#c4af94;fill-opacity:1;stroke:none;stroke-width:0.26900461px;stroke-linecap:butt;stroke-linejoin:miter;stroke-opacity:1"
       d="m 172.18437,113.35499 c 1.17294,1.69982 2.50122,2.51309 3.84755,3.22334 -1.14865,-0.89517 -2.31846,-1.74016 -3.22273,-3.21517 z"
       id="path1056-6-25-4"
       inkscape:connector-curvature="0"
       sodipodi:nodetypes="cccc" />
    <path
       style="fill:#c4af94;fill-opacity:1;stroke:none;stroke-width:0.26458332px;stroke-linecap:butt;stroke-linejoin:miter;stroke-opacity:1"
       d="m 172.60992,114.49233 c 1.44218,1.26766 2.16943,2.78156 2.8136,4.32408 -0.78527,-1.29565 -1.53067,-2.61986 -2.7766,-3.58557 z"
       id="path1056-6-25-9"
       inkscape:connector-curvature="0"
       sodipodi:nodetypes="cccc" />
    <path
       style="fill:#c4af94;fill-opacity:1;stroke:none;stroke-width:0.26458332px;stroke-linecap:butt;stroke-linejoin:miter;stroke-opacity:1"
       d="m 170.45809,118.85224 c 1.44218,1.26766 2.16943,2.78156 2.8136,4.32408 -0.78527,-1.29565 -1.53067,-2.61986 -2.7766,-3.58557 z"
       id="path1056-6-25-46"
       inkscape:connector-curvature="0"
       sodipodi:nodetypes="cccc" />
    <path
       style="fill:#c4af94;fill-opacity:1;stroke:none;stroke-width:0.24339423px;stroke-linecap:butt;stroke-linejoin:miter;stroke-opacity:1"
       d="m 165.61778,117.85636 c 1.19708,1.2924 1.80073,2.83585 2.33542,4.40847 -0.65181,-1.32093 -1.27053,-2.67099 -2.3047,-3.65554 z"
       id="path1056-6-25-7"
       inkscape:connector-curvature="0"
       sodipodi:nodetypes="cccc" />
    <path
       style="fill:#c4af94;fill-opacity:1;stroke:none;stroke-width:0.26458332px;stroke-linecap:butt;stroke-linejoin:miter;stroke-opacity:1"
       d="m 164.12125,80.147323 c -0.49244,-1.8559 -1.52383,-3.181424 -2.61786,-4.445325 0.81016,1.280249 1.66363,2.537517 1.97317,4.083196 z"
       id="path1056-6-25-74"
       inkscape:connector-curvature="0"
       sodipodi:nodetypes="cccc" />
    <path
       style="fill:#c4af94;fill-opacity:1;stroke:none;stroke-width:0.26458332px;stroke-linecap:butt;stroke-linejoin:miter;stroke-opacity:1"
       d="m 163.45079,79.469927 c -0.49244,-1.8559 -1.52383,-3.181424 -2.61786,-4.445325 0.81016,1.280249 1.66363,2.537517 1.97317,4.083196 z"
       id="path1056-6-25-74-8"
       inkscape:connector-curvature="0"
       sodipodi:nodetypes="cccc" />
    <path
       style="fill:#c4af94;fill-opacity:1;stroke:none;stroke-width:0.26458332px;stroke-linecap:butt;stroke-linejoin:miter;stroke-opacity:1"
       d="m 162.31706,78.05775 c -0.49244,-1.8559 -1.52383,-3.181424 -2.61786,-4.445325 0.81016,1.280249 1.66363,2.537517 1.97317,4.083196 z"
       id="path1056-6-25-74-9"
       inkscape:connector-curvature="0"
       sodipodi:nodetypes="cccc" />
    <path
       style="fill:#c4af94;fill-opacity:1;stroke:none;stroke-width:0.26458332px;stroke-linecap:butt;stroke-linejoin:miter;stroke-opacity:1"
       d="m 161.00434,76.506344 c -0.49244,-1.8559 -1.52383,-3.181424 -2.61786,-4.445325 0.81016,1.280249 1.66363,2.537517 1.97317,4.083196 z"
       id="path1056-6-25-74-6"
       inkscape:connector-curvature="0"
       sodipodi:nodetypes="cccc" />
    <path
       style="fill:#c4af94;fill-opacity:1;stroke:none;stroke-width:0.26458332px;stroke-linecap:butt;stroke-linejoin:miter;stroke-opacity:1"
       d="m 159.5126,74.785873 c -0.49244,-1.8559 -1.52383,-3.181424 -2.61786,-4.445325 0.81016,1.280249 1.66363,2.537517 1.97317,4.083196 z"
       id="path1056-6-25-74-83"
       inkscape:connector-curvature="0"
       sodipodi:nodetypes="cccc" />
    <path
       style="fill:#c4af94;fill-opacity:1;stroke:none;stroke-width:0.26458332px;stroke-linecap:butt;stroke-linejoin:miter;stroke-opacity:1"
       d="m 157.79213,73.771492 c -0.49244,-1.8559 -1.52383,-3.181424 -2.61786,-4.445325 0.81016,1.280249 1.66363,2.537517 1.97317,4.083196 z"
       id="path1056-6-25-74-1"
       inkscape:connector-curvature="0"
       sodipodi:nodetypes="cccc" />
    <path
       style="fill:#c4af94;fill-opacity:1;stroke:none;stroke-width:0.25201863px;stroke-linecap:butt;stroke-linejoin:miter;stroke-opacity:1"
       d="m 156.93687,72.946065 c -0.4438,-1.868356 -1.37332,-3.202776 -2.35929,-4.47516 0.73014,1.288842 1.49931,2.554548 1.77828,4.110601 z"
       id="path1056-6-25-74-12"
       inkscape:connector-curvature="0"
       sodipodi:nodetypes="cccc" />
    <path
       style="fill:#c4af94;fill-opacity:1;stroke:none;stroke-width:0.23168933px;stroke-linecap:butt;stroke-linejoin:miter;stroke-opacity:1"
       d="m 155.42524,71.76262 c -0.41574,-1.68567 -1.28649,-2.889612 -2.21012,-4.037584 0.68398,1.16282 1.40451,2.304767 1.66584,3.708671 z"
       id="path1056-6-25-74-5"
       inkscape:connector-curvature="0"
       sodipodi:nodetypes="cccc" />
    <path
       style="fill:#c4af94;fill-opacity:1;stroke:none;stroke-width:0.25603488px;stroke-linecap:butt;stroke-linejoin:miter;stroke-opacity:1"
       d="m 156.06993,72.124749 c -0.45503,-1.880812 -1.40805,-3.224128 -2.41896,-4.504994 0.7486,1.297433 1.53723,2.571578 1.82325,4.138004 z"
       id="path1056-6-25-74-3"
       inkscape:connector-curvature="0"
       sodipodi:nodetypes="cccc" />
    <path
       style="fill:#c4af94;fill-opacity:1;stroke:none;stroke-width:0.26458332px;stroke-linecap:butt;stroke-linejoin:miter;stroke-opacity:1"
       d="m 157.82197,73.582539 c -0.49244,-1.8559 -1.52383,-3.181424 -2.61786,-4.445325 0.81016,1.280249 1.66363,2.537517 1.97317,4.083196 z"
       id="path1056-6-25-74-55"
       inkscape:connector-curvature="0"
       sodipodi:nodetypes="cccc" />
    <path
       style="fill:#c4af94;fill-opacity:1;stroke:none;stroke-width:0.26458332px;stroke-linecap:butt;stroke-linejoin:miter;stroke-opacity:1"
       d="m 164.42538,80.086512 c -0.49244,-1.8559 -1.52383,-3.181424 -2.61786,-4.445325 0.81016,1.280249 1.66363,2.537517 1.97317,4.083196 z"
       id="path1056-6-25-74-34"
       inkscape:connector-curvature="0"
       sodipodi:nodetypes="cccc" />
    <path
       style="fill:#c4af94;fill-opacity:1;stroke:none;stroke-width:0.26458332px;stroke-linecap:butt;stroke-linejoin:miter;stroke-opacity:1"
       d="m 161.14122,79.817999 c 0.49244,-1.8559 1.52383,-3.181424 2.61786,-4.445325 -0.81016,1.280249 -1.66363,2.537517 -1.97317,4.083196 z"
       id="path1056-6-25-74-2"
       inkscape:connector-curvature="0"
       sodipodi:nodetypes="cccc" />
    <path
       style="fill:#c4af94;fill-opacity:1;stroke:none;stroke-width:0.26458332px;stroke-linecap:butt;stroke-linejoin:miter;stroke-opacity:1"
       d="m 157.34512,77.648616 c 0.49244,-1.8559 1.52383,-3.181424 2.61786,-4.445325 -0.81016,1.280249 -1.66363,2.537517 -1.97317,4.083196 z"
       id="path1056-6-25-74-90"
       inkscape:connector-curvature="0"
       sodipodi:nodetypes="cccc" />
    <path
       style="fill:#c4af94;fill-opacity:1;stroke:none;stroke-width:0.26458332px;stroke-linecap:butt;stroke-linejoin:miter;stroke-opacity:1"
       d="m 159.43479,75.456126 c 1.37018,1.34516 2.93342,1.959227 4.5191,2.488338 -1.34985,-0.687963 -2.72524,-1.33407 -3.77987,-2.505686 z"
       id="path1056-6-25-74-10"
       inkscape:connector-curvature="0"
       sodipodi:nodetypes="cccc" />
    <path
       style="fill:#c4af94;fill-opacity:1;stroke:none;stroke-width:0.26458332px;stroke-linecap:butt;stroke-linejoin:miter;stroke-opacity:1"
       d="m 157.90327,73.943228 c 1.37018,1.34516 2.93342,1.959227 4.5191,2.488338 -1.34985,-0.687963 -2.72524,-1.33407 -3.77987,-2.505686 z"
       id="path1056-6-25-74-10-0"
       inkscape:connector-curvature="0"
       sodipodi:nodetypes="cccc" />
    <path
       style="fill:#c4af94;fill-opacity:1;stroke:none;stroke-width:0.26458332px;stroke-linecap:butt;stroke-linejoin:miter;stroke-opacity:1"
       d="m 157.78393,73.893503 c 1.37018,1.34516 2.93342,1.959227 4.5191,2.488338 -1.34985,-0.687963 -2.72524,-1.33407 -3.77987,-2.505686 z"
       id="path1056-6-25-74-10-1"
       inkscape:connector-curvature="0"
       sodipodi:nodetypes="cccc" />
    <path
       style="fill:#c4af94;fill-opacity:1;stroke:none;stroke-width:0.26458332px;stroke-linecap:butt;stroke-linejoin:miter;stroke-opacity:1"
       d="m 157.70437,73.465872 c 1.37018,1.34516 2.93342,1.959227 4.5191,2.488338 -1.34985,-0.687963 -2.72524,-1.33407 -3.77987,-2.505686 z"
       id="path1056-6-25-74-10-9"
       inkscape:connector-curvature="0"
       sodipodi:nodetypes="cccc" />
    <path
       style="fill:#c4af94;fill-opacity:1;stroke:none;stroke-width:0.26458332px;stroke-linecap:butt;stroke-linejoin:miter;stroke-opacity:1"
       d="m 153.16949,69.408348 c 1.37018,1.34516 2.93342,1.959227 4.5191,2.488338 -1.34985,-0.687963 -2.72524,-1.33407 -3.77987,-2.505686 z"
       id="path1056-6-25-74-10-4"
       inkscape:connector-curvature="0"
       sodipodi:nodetypes="cccc" />
    <path
       style="fill:#c4af94;fill-opacity:1;stroke:none;stroke-width:0.26458332px;stroke-linecap:butt;stroke-linejoin:miter;stroke-opacity:1"
       d="m 155.26787,70.462508 c 1.37018,1.34516 2.93342,1.959227 4.5191,2.488338 -1.34985,-0.687963 -2.72524,-1.33407 -3.77987,-2.505686 z"
       id="path1056-6-25-74-10-3"
       inkscape:connector-curvature="0"
       sodipodi:nodetypes="cccc" />
    <path
       style="fill:#c4af94;fill-opacity:1;stroke:none;stroke-width:0.26458332px;stroke-linecap:butt;stroke-linejoin:miter;stroke-opacity:1"
       d="m 154.80046,69.925483 c 1.37018,1.34516 2.93342,1.959227 4.5191,2.488338 -1.34985,-0.687963 -2.72524,-1.33407 -3.77987,-2.505686 z"
       id="path1056-6-25-74-10-7"
       inkscape:connector-curvature="0"
       sodipodi:nodetypes="cccc" />
    <path
       style="fill:#c4af94;fill-opacity:1;stroke:none;stroke-width:0.26458332px;stroke-linecap:butt;stroke-linejoin:miter;stroke-opacity:1"
       d="m 151.37941,67.827107 c 1.37018,1.34516 2.93342,1.959227 4.5191,2.488338 -1.34985,-0.687963 -2.72524,-1.33407 -3.77987,-2.505686 z"
       id="path1056-6-25-74-10-71"
       inkscape:connector-curvature="0"
       sodipodi:nodetypes="cccc" />
    <path
       style="fill:#c4af94;fill-opacity:1;stroke:none;stroke-width:0.26458332px;stroke-linecap:butt;stroke-linejoin:miter;stroke-opacity:1"
       d="m 162.92545,86.364424 c 1.37018,1.34516 2.93342,1.959227 4.5191,2.488338 -1.34985,-0.687963 -2.72524,-1.33407 -3.77987,-2.505686 z"
       id="path1056-6-25-74-10-17"
       inkscape:connector-curvature="0"
       sodipodi:nodetypes="cccc" />
    <path
       style="fill:#c4af94;fill-opacity:1;stroke:none;stroke-width:0.26458332px;stroke-linecap:butt;stroke-linejoin:miter;stroke-opacity:1"
       d="m 164.90888,86.783394 c 1.37018,1.34516 2.93342,1.959227 4.5191,2.488338 -1.34985,-0.687963 -2.72524,-1.33407 -3.77987,-2.505686 z"
       id="path1056-6-25-74-10-91"
       inkscape:connector-curvature="0"
       sodipodi:nodetypes="cccc" />
    <path
       style="fill:#c4af94;fill-opacity:1;stroke:none;stroke-width:0.26458332px;stroke-linecap:butt;stroke-linejoin:miter;stroke-opacity:1"
       d="m 162.72303,106.87438 c -0.36671,1.88478 -0.0171,3.5275 0.41577,5.14211 -0.17032,-1.50545 -0.38966,-3.00913 0.006,-4.53496 z"
       id="path1056-6-25-74-10-03"
       inkscape:connector-curvature="0"
       sodipodi:nodetypes="cccc" />
    <path
       style="fill:#c4af94;fill-opacity:1;stroke:none;stroke-width:0.26458332px;stroke-linecap:butt;stroke-linejoin:miter;stroke-opacity:1"
       d="m 159.80293,95.794376 c 0.89258,1.70005 1.0295,3.373971 1.0786,5.044884 -0.26923,-1.490948 -0.49101,-2.994267 -1.30823,-4.342174 z"
       id="path1056-6-25-74-10-03-6"
       inkscape:connector-curvature="0"
       sodipodi:nodetypes="cccc" />
    <path
       style="fill:#c4af94;fill-opacity:1;stroke:none;stroke-width:0.26458332px;stroke-linecap:butt;stroke-linejoin:miter;stroke-opacity:1"
       d="m 151.65545,88.446127 c 1.63024,1.014492 2.59551,2.388896 3.48353,3.805155 -0.98679,-1.149633 -1.93891,-2.333951 -3.32593,-3.082872 z"
       id="path1056-6-25-74-10-03-6-2"
       inkscape:connector-curvature="0"
       sodipodi:nodetypes="cccc" />
    <path
       style="fill:#c4af94;fill-opacity:1;stroke:none;stroke-width:0.26458332px;stroke-linecap:butt;stroke-linejoin:miter;stroke-opacity:1"
       d="m 164.26765,114.08974 c 0.89258,1.70005 1.0295,3.37397 1.0786,5.04488 -0.26923,-1.49094 -0.49101,-2.99426 -1.30823,-4.34217 z"
       id="path1056-6-25-74-10-03-6-5"
       inkscape:connector-curvature="0"
       sodipodi:nodetypes="cccc" />
    <path
       style="fill:#c4af94;fill-opacity:1;stroke:none;stroke-width:0.26458332px;stroke-linecap:butt;stroke-linejoin:miter;stroke-opacity:1"
       d="m 163.91201,111.69495 c 0.69227,1.79099 0.63682,3.46958 0.49447,5.13514 -0.0969,-1.51196 -0.14529,-3.03077 -0.80297,-4.46331 z"
       id="path1056-6-25-74-10-03-6-6"
       inkscape:connector-curvature="0"
       sodipodi:nodetypes="cccc" />
    <path
       style="fill:#c4af94;fill-opacity:1;stroke:none;stroke-width:0.26458332px;stroke-linecap:butt;stroke-linejoin:miter;stroke-opacity:1"
       d="m 90.013633,114.31477 c -0.89258,1.70005 -1.0295,3.37397 -1.0786,5.04488 0.26923,-1.49094 0.49101,-2.99426 1.30823,-4.34217 z"
       id="path1056-6-25-74-10-03-6-0"
       inkscape:connector-curvature="0"
       sodipodi:nodetypes="cccc" />
    <path
       style="fill:#c4af94;fill-opacity:1;stroke:none;stroke-width:0.26458332px;stroke-linecap:butt;stroke-linejoin:miter;stroke-opacity:1"
       d="m 90.491816,113.33028 c -0.89258,1.70005 -1.0295,3.37397 -1.0786,5.04488 0.26923,-1.49094 0.49101,-2.99426 1.30823,-4.34217 z"
       id="path1056-6-25-74-10-03-6-0-7"
       inkscape:connector-curvature="0"
       sodipodi:nodetypes="cccc"
       inkscape:transform-center-x="-0.16877076"
       inkscape:transform-center-y="0.75946844" />
    <path
       style="fill:#c4af94;fill-opacity:1;stroke:none;stroke-width:0.26458332px;stroke-linecap:butt;stroke-linejoin:miter;stroke-opacity:1"
       d="m 90.744972,112.82397 c -0.89258,1.70005 -1.0295,3.37397 -1.0786,5.04488 0.26923,-1.49094 0.49101,-2.99426 1.30823,-4.34217 z"
       id="path1056-6-25-74-10-03-6-0-5"
       inkscape:connector-curvature="0"
       sodipodi:nodetypes="cccc" />
    <path
       style="fill:#c4af94;fill-opacity:1;stroke:none;stroke-width:0.26458332px;stroke-linecap:butt;stroke-linejoin:miter;stroke-opacity:1"
       d="m 92.548298,112.41662 c -1.220841,1.48204 -1.696602,3.09275 -2.085778,4.71845 0.56793,-1.40458 1.091936,-2.83097 2.167117,-3.98366 z"
       id="path1056-6-25-74-10-03-6-0-3"
       inkscape:connector-curvature="0"
       sodipodi:nodetypes="cccc" />
    <path
       style="fill:#c4af94;fill-opacity:1;stroke:none;stroke-width:0.26458332px;stroke-linecap:butt;stroke-linejoin:miter;stroke-opacity:1"
       d="m 95.333394,100.16236 c -0.501238,1.85354 -0.270612,3.51714 0.04507,5.15869 -0.06167,-1.51379 -0.172344,-3.02935 0.33197,-4.52279 z"
       id="path1056-6-25-74-10-03-6-0-2"
       inkscape:connector-curvature="0"
       sodipodi:nodetypes="cccc" />
    <path
       style="fill:#c4af94;fill-opacity:1;stroke:none;stroke-width:0.26458332px;stroke-linecap:butt;stroke-linejoin:miter;stroke-opacity:1"
       d="m 105.1488,86.36227 c -1.69762,0.897202 -2.75726,2.200238 -3.74278,3.550461 1.06527,-1.077302 2.09841,-2.19165 3.53472,-2.841066 z"
       id="path1056-6-25-74-10-03-6-0-4"
       inkscape:connector-curvature="0"
       sodipodi:nodetypes="cccc" />
    <path
       style="fill:#c4af94;fill-opacity:1;stroke:none;stroke-width:0.26458332px;stroke-linecap:butt;stroke-linejoin:miter;stroke-opacity:1"
       d="m 120.56115,85.736253 c -0.89258,1.70005 -1.0295,3.37397 -1.0786,5.04488 0.26923,-1.49094 0.49101,-2.99426 1.30823,-4.34217 z"
       id="path1056-6-25-74-10-03-6-0-6"
       inkscape:connector-curvature="0"
       sodipodi:nodetypes="cccc" />
    <path
       style="fill:#c4af94;fill-opacity:1;stroke:none;stroke-width:0.26458332px;stroke-linecap:butt;stroke-linejoin:miter;stroke-opacity:1"
       d="m 134.67651,85.117426 c 0.89258,1.70005 1.0295,3.373971 1.0786,5.04488 -0.26923,-1.49094 -0.49101,-2.99426 -1.30823,-4.34217 z"
       id="path1056-6-25-74-10-03-6-0-6-5"
       inkscape:connector-curvature="0"
       sodipodi:nodetypes="cccc" />
  </g>
</svg>
